<svg width="471" height="471" viewBox="0 0 471 471" fill="none" xmlns="http://www.w3.org/2000/svg">
<circle cx="235.5" cy="235.5" r="235.5" fill="#D9D9D9"/>
<path d="M439 343.038H31V343.242H439V343.038Z" fill="#F2F1ED"/>
<path d="M398.118 356.168H371.092V356.372H398.118V356.168Z" fill="#F2F1ED"/>
<path d="M301.276 358.387H294.185V358.591H301.276V358.387Z" fill="#F2F1ED"/>
<path d="M370.276 348.595H354.617V348.799H370.276V348.595Z" fill="#F2F1ED"/>
<path d="M109.05 349.966H73.8071V350.17H109.05V349.966Z" fill="#F2F1ED"/>
<path d="M121.486 349.966H116.321V350.17H121.486V349.966Z" fill="#F2F1ED"/>
<path d="M214.722 353.41H138.279V353.614H214.722V353.41Z" fill="#F2F1ED"/>
<path d="M224.392 306.645H66.8304C65.5961 306.643 64.413 306.151 63.541 305.277C62.669 304.404 62.1792 303.22 62.1792 301.985V80.4984C62.1899 79.2712 62.6845 78.0978 63.5553 77.233C64.4262 76.3682 65.6031 75.882 66.8304 75.8799H224.392C225.628 75.8799 226.813 76.3708 227.687 77.2446C228.56 78.1184 229.051 79.3035 229.051 80.5392V301.985C229.051 303.221 228.56 304.406 227.687 305.28C226.813 306.154 225.628 306.645 224.392 306.645ZM66.8304 76.0431C65.6502 76.0452 64.519 76.5156 63.6853 77.3509C62.8515 78.1862 62.3832 79.3182 62.3832 80.4984V301.985C62.3832 303.166 62.8515 304.298 63.6853 305.133C64.519 305.968 65.6502 306.439 66.8304 306.441H224.392C225.573 306.439 226.705 305.968 227.54 305.133C228.375 304.298 228.845 303.166 228.847 301.985V80.4984C228.845 79.3175 228.375 78.1855 227.54 77.3504C226.705 76.5153 225.573 76.0452 224.392 76.0431H66.8304Z" fill="#F2F1ED"/>
<path d="M400.901 306.645H243.331C242.096 306.643 240.912 306.151 240.039 305.278C239.166 304.404 238.674 303.22 238.672 301.985V80.4984C238.685 79.2705 239.181 78.097 240.053 77.2325C240.925 76.3679 242.103 75.882 243.331 75.8799H400.901C402.127 75.8841 403.302 76.3713 404.171 77.2359C405.04 78.1004 405.533 79.2726 405.544 80.4984V301.985C405.544 303.218 405.055 304.401 404.185 305.274C403.315 306.148 402.134 306.64 400.901 306.645ZM243.331 76.0431C242.15 76.0452 241.018 76.5153 240.183 77.3504C239.348 78.1855 238.878 79.3175 238.876 80.4984V301.985C238.878 303.166 239.348 304.298 240.183 305.133C241.018 305.968 242.15 306.439 243.331 306.441H400.901C402.082 306.439 403.214 305.968 404.049 305.133C404.884 304.298 405.354 303.166 405.356 301.985V80.4984C405.354 79.3175 404.884 78.1855 404.049 77.3504C403.214 76.5153 402.082 76.0452 400.901 76.0431H243.331Z" fill="#F2F1ED"/>
<path d="M115.921 150.389C115.921 150.389 114.958 144.089 119.561 140.042C124.163 135.995 123.755 133.596 122.441 133.285C121.127 132.975 119.912 137.015 117.896 138.124C117.896 138.124 117.831 132.363 119.879 130.242C121.927 128.12 123.012 122.653 121.062 122.555C119.112 122.457 118.9 125.819 118.5 128.169C118.1 130.519 115.921 133.881 115.921 133.881C115.921 133.881 115.489 128.724 114.167 126.602C112.845 124.481 116.378 119.626 114.983 117.504C113.588 115.382 111.189 119.43 111.393 123.975C111.597 128.52 114.657 133.375 113.914 138.124C113.914 138.124 112.584 134.787 111.376 134.485C110.169 134.183 108.928 131.98 108.161 131.156C107.394 130.332 106.341 133.171 108.161 135.799C109.981 138.426 114.624 145.452 113.914 151.14L115.921 150.389Z" fill="#E6E6E6"/>
<path d="M118.663 147.525L120.173 156.974C120.281 157.66 120.24 158.362 120.051 159.031C119.862 159.699 119.531 160.319 119.079 160.847C118.628 161.376 118.067 161.8 117.436 162.09C116.805 162.381 116.118 162.531 115.424 162.531H113.792C113.097 162.531 112.41 162.381 111.779 162.09C111.148 161.8 110.587 161.376 110.136 160.847C109.685 160.319 109.353 159.699 109.164 159.031C108.975 158.362 108.934 157.66 109.042 156.974L110.552 147.525H118.663Z" fill="#E6E6E6"/>
<path d="M209.059 160.679H213.751V140.524H209.059V160.679Z" fill="#F2F1ED"/>
<path d="M186.391 160.679H191.083V140.524H186.391V160.679Z" fill="#F2F1ED"/>
<path d="M157.225 159.874L161.849 160.671L165.273 140.809L160.649 140.012L157.225 159.874Z" fill="#F2F1ED"/>
<path d="M203.249 160.679H207.941V143.176H203.249V160.679Z" fill="#F2F1ED"/>
<path d="M192.47 160.679H197.162V143.176H192.47V160.679Z" fill="#F2F1ED"/>
<path d="M165.265 160.679H169.957V143.176H165.265V160.679Z" fill="#F2F1ED"/>
<path d="M176.435 159.652L181.016 160.67L184.813 143.584L180.233 142.566L176.435 159.652Z" fill="#F2F1ED"/>
<path d="M199.202 160.67H201.544V139.512H199.202V160.67Z" fill="#F2F1ED"/>
<path d="M171.311 160.67H173.653V139.512H171.311V160.67Z" fill="#F2F1ED"/>
<path d="M154.583 144.677H131.735V160.45H154.583V144.677Z" fill="#F2F1ED"/>
<path d="M232.952 151.14H213.809V162.915H232.952V151.14Z" fill="#F2F1ED"/>
<path d="M228.48 140.785H218.909V152.56H228.48V140.785Z" fill="#F2F1ED"/>
<path d="M236.934 159.365H114.363V339.072H236.934V159.365Z" fill="#F0F0F0"/>
<path d="M232.601 165.028H118.695V198.215H232.601V165.028Z" fill="#E0E0E0"/>
<path d="M125.166 170.397H118.695V198.214H125.166V170.397Z" fill="#F2F1ED"/>
<path d="M156.452 170.397H149.981V198.214H156.452V170.397Z" fill="#F2F1ED"/>
<path d="M191.969 169.698L185.592 170.797L190.317 198.211L196.694 197.111L191.969 169.698Z" fill="#F2F1ED"/>
<path d="M133.179 174.061H126.708V198.215H133.179V174.061Z" fill="#F2F1ED"/>
<path d="M148.055 174.061H141.584V198.215H148.055V174.061Z" fill="#F2F1ED"/>
<path d="M185.591 174.061H179.12V198.215H185.591V174.061Z" fill="#F2F1ED"/>
<path d="M164.953 173.233L158.637 174.637L163.877 198.216L170.194 196.812L164.953 173.233Z" fill="#F2F1ED"/>
<path d="M138.769 169.018H135.538V198.215H138.769V169.018Z" fill="#F2F1ED"/>
<path d="M177.26 169.018H174.028V198.215H177.26V169.018Z" fill="#F2F1ED"/>
<path d="M118.687 236.656H232.593V203.47H118.687V236.656Z" fill="#E0E0E0"/>
<path d="M226.122 236.665H232.593V208.847H226.122V236.665Z" fill="#F2F1ED"/>
<path d="M194.845 236.665H201.315V208.847H194.845V236.665Z" fill="#F2F1ED"/>
<path d="M154.605 235.558L160.982 236.657L165.707 209.244L159.33 208.145L154.605 235.558Z" fill="#F2F1ED"/>
<path d="M218.109 236.656H224.58V212.503H218.109V236.656Z" fill="#F2F1ED"/>
<path d="M203.233 236.656H209.704V212.503H203.233V236.656Z" fill="#F2F1ED"/>
<path d="M165.697 236.656H172.168V212.503H165.697V236.656Z" fill="#F2F1ED"/>
<path d="M181.121 235.247L187.438 236.651L192.678 213.073L186.361 211.669L181.121 235.247Z" fill="#F2F1ED"/>
<path d="M212.519 236.665H215.75V207.468H212.519V236.665Z" fill="#F2F1ED"/>
<path d="M174.028 236.665H177.26V207.468H174.028V236.665Z" fill="#F2F1ED"/>
<path d="M125.166 208.839H118.695V236.656H125.166V208.839Z" fill="#F2F1ED"/>
<path d="M133.179 212.511H126.708V236.664H133.179V212.511Z" fill="#F2F1ED"/>
<path d="M148.055 212.511H141.584V236.664H148.055V212.511Z" fill="#F2F1ED"/>
<path d="M138.769 207.46H135.538V236.656H138.769V207.46Z" fill="#F2F1ED"/>
<path d="M232.601 241.912H118.695V275.098H232.601V241.912Z" fill="#E0E0E0"/>
<path d="M190.544 247.289H184.073V275.106H190.544V247.289Z" fill="#F2F1ED"/>
<path d="M226.069 246.584L219.692 247.684L224.417 275.097L230.794 273.998L226.069 246.584Z" fill="#F2F1ED"/>
<path d="M167.272 250.953H160.801V275.106H167.272V250.953Z" fill="#F2F1ED"/>
<path d="M182.148 250.953H175.677V275.106H182.148V250.953Z" fill="#F2F1ED"/>
<path d="M219.684 250.953H213.213V275.106H219.684V250.953Z" fill="#F2F1ED"/>
<path d="M199.051 250.11L192.734 251.514L197.975 275.092L204.291 273.688L199.051 250.11Z" fill="#F2F1ED"/>
<path d="M172.862 245.91H169.63V275.106H172.862V245.91Z" fill="#F2F1ED"/>
<path d="M211.352 245.91H208.121V275.106H211.352V245.91Z" fill="#F2F1ED"/>
<path d="M151.621 246.59L145.245 247.689L149.97 275.102L156.347 274.003L151.621 246.59Z" fill="#F2F1ED"/>
<path d="M145.24 250.953H138.769V275.106H145.24V250.953Z" fill="#F2F1ED"/>
<path d="M124.61 250.112L118.293 251.516L123.533 275.094L129.85 273.691L124.61 250.112Z" fill="#F2F1ED"/>
<path d="M136.909 245.91H133.677V275.106H136.909V245.91Z" fill="#F2F1ED"/>
<path d="M93.2202 339.546H114.363L114.363 159.373H93.2202L93.2202 339.546Z" fill="#E0E0E0"/>
<path d="M373.247 137.496L346.131 121.723H325.241L297.677 136.753V238.99H373.247V137.496Z" fill="#E0E0E0"/>
<path d="M296.902 137.504L297.677 136.754C307.718 127.077 321.13 121.687 335.074 121.723C349.019 121.687 362.431 127.077 372.472 136.754L373.247 137.504V238.99H296.902V137.504ZM368.188 139.675C359.155 131.381 347.338 126.779 335.074 126.779C322.811 126.779 310.994 131.381 301.961 139.675V233.923H368.188V139.675Z" fill="#FAFAFA"/>
<path d="M336.976 234.535H333.173V200.605H301.006V196.803H333.173V162.106H301.006V158.304H333.173V126.137H336.976V158.304H369.142V162.106H336.976V196.803H369.142V200.605H336.976V234.535Z" fill="#F0F0F0"/>
<path d="M294.364 136.468L295.106 135.725C305.715 125.13 320.096 119.178 335.09 119.178C350.084 119.178 364.465 125.13 375.074 135.725L375.817 136.468V241.528H294.364V136.468ZM370.717 138.581C361.127 129.391 348.357 124.26 335.074 124.26C321.791 124.26 309.021 129.391 299.431 138.581V236.452H370.717V138.581Z" fill="#F0F0F0"/>
<path d="M235 379.889C322.379 379.889 393.214 375.753 393.214 370.652C393.214 365.55 322.379 361.415 235 361.415C147.621 361.415 76.7856 365.55 76.7856 370.652C76.7856 375.753 147.621 379.889 235 379.889Z" fill="#F5F5F5"/>
<path d="M357.514 143.763V142.359C357.514 142.048 357.262 141.796 356.951 141.796H345.013C344.702 141.796 344.45 142.048 344.45 142.359V143.763C344.45 144.074 344.702 144.326 345.013 144.326H356.951C357.262 144.326 357.514 144.074 357.514 143.763Z" fill="#263238"/>
<path d="M374.177 359.423V148.243C374.177 145.255 371.755 142.833 368.767 142.833H221.446C218.458 142.833 216.036 145.255 216.036 148.243V359.423C216.036 362.411 218.458 364.833 221.446 364.833H368.767C371.755 364.833 374.177 362.411 374.177 359.423Z" fill="#263238"/>
<path opacity="0.2" d="M370.097 359.423V148.243C370.097 145.255 367.675 142.833 364.687 142.833H221.446C218.459 142.833 216.036 145.255 216.036 148.243V359.423C216.036 362.411 218.459 364.833 221.446 364.833H364.687C367.675 364.833 370.097 362.411 370.097 359.423Z" fill="white"/>
<path opacity="0.6" d="M290.211 148.398C291.013 148.398 291.663 147.747 291.663 146.945C291.663 146.143 291.013 145.493 290.211 145.493C289.409 145.493 288.758 146.143 288.758 146.945C288.758 147.747 289.409 148.398 290.211 148.398Z" fill="white"/>
<path opacity="0.6" d="M296.641 147.672C297.042 147.672 297.367 147.347 297.367 146.945C297.367 146.544 297.042 146.219 296.641 146.219C296.24 146.219 295.915 146.544 295.915 146.945C295.915 147.347 296.24 147.672 296.641 147.672Z" fill="white"/>
<path d="M293.058 361.349C295.519 361.349 297.514 359.354 297.514 356.894C297.514 354.433 295.519 352.438 293.058 352.438C290.598 352.438 288.603 354.433 288.603 356.894C288.603 359.354 290.598 361.349 293.058 361.349Z" fill="white"/>
<path d="M365.642 349.574V151.417H220.475V349.574H365.642Z" fill="#710014"/>
<path opacity="0.8" d="M365.642 349.566V157.578H220.475V349.566H365.642Z" fill="white"/>
<path opacity="0.6" d="M352.512 155.848C353.269 155.848 353.883 155.234 353.883 154.477C353.883 153.72 353.269 153.106 352.512 153.106C351.755 153.106 351.141 153.72 351.141 154.477C351.141 155.234 351.755 155.848 352.512 155.848Z" fill="white"/>
<path opacity="0.6" d="M357.245 155.848C358.002 155.848 358.616 155.234 358.616 154.477C358.616 153.72 358.002 153.106 357.245 153.106C356.488 153.106 355.874 153.72 355.874 154.477C355.874 155.234 356.488 155.848 357.245 155.848Z" fill="white"/>
<path opacity="0.6" d="M361.978 155.848C362.735 155.848 363.349 155.234 363.349 154.477C363.349 153.72 362.735 153.106 361.978 153.106C361.221 153.106 360.607 153.72 360.607 154.477C360.607 155.234 361.221 155.848 361.978 155.848Z" fill="white"/>
<path opacity="0.2" d="M365.642 157.586H220.475V166.366H365.642V157.586Z" fill="black"/>
<path opacity="0.6" d="M361.252 164.073H316.323C315.767 164.073 315.233 163.852 314.84 163.459C314.447 163.066 314.226 162.532 314.226 161.976C314.226 161.42 314.447 160.886 314.84 160.493C315.233 160.1 315.767 159.879 316.323 159.879H361.252C361.808 159.879 362.341 160.1 362.735 160.493C363.128 160.886 363.349 161.42 363.349 161.976C363.349 162.532 363.128 163.066 362.735 163.459C362.341 163.852 361.808 164.073 361.252 164.073Z" fill="white"/>
<path d="M272.675 179.512C272.669 178.998 272.768 178.488 272.966 178.014C273.164 177.539 273.457 177.111 273.827 176.754C274.197 176.397 274.636 176.119 275.117 175.938C275.598 175.757 276.111 175.677 276.624 175.701C277.152 175.681 277.678 175.775 278.167 175.976C278.656 176.177 279.095 176.482 279.456 176.868L278.77 177.537C278.375 177.122 277.866 176.836 277.306 176.713C276.747 176.591 276.164 176.64 275.632 176.852C275.101 177.065 274.645 177.432 274.324 177.906C274.003 178.38 273.831 178.939 273.831 179.512C273.831 180.084 274.003 180.644 274.324 181.118C274.645 181.592 275.101 181.959 275.632 182.171C276.164 182.384 276.747 182.432 277.306 182.31C277.866 182.188 278.375 181.901 278.77 181.487L279.456 182.156C279.095 182.544 278.654 182.85 278.164 183.053C277.674 183.256 277.146 183.35 276.616 183.331C276.103 183.354 275.59 183.272 275.109 183.09C274.628 182.908 274.19 182.63 273.821 182.272C273.452 181.914 273.16 181.485 272.963 181.01C272.765 180.536 272.667 180.026 272.675 179.512Z" fill="#263238"/>
<path d="M287.395 175.824V183.274H286.326V179.953H282.05V183.274H280.981V175.824H282.05V179.031H286.326V175.824H287.395Z" fill="#263238"/>
<path d="M294.38 181.413H290.423L289.607 183.274H288.513L291.891 175.824H292.936L296.322 183.274H295.204L294.38 181.413ZM294.013 180.557L292.381 176.909L290.749 180.557H294.013Z" fill="#263238"/>
<path d="M303.446 178.419C303.446 180.051 302.271 181.022 300.337 181.022H298.493V183.274H297.432V175.824H300.337C302.271 175.824 303.446 176.803 303.446 178.419ZM302.377 178.419C302.377 177.358 301.667 176.787 300.304 176.787H298.493V180.132H300.28C301.667 180.091 302.377 179.512 302.377 178.419Z" fill="#263238"/>
<path d="M306.261 176.746H303.707V175.824H309.868V176.746H307.314V183.274H306.261V176.746Z" fill="#263238"/>
<path d="M316.437 182.352V183.274H311.035V175.824H316.29V176.746H312.095V179.039H315.833V179.945H312.095V182.352H316.437Z" fill="#263238"/>
<path d="M323.128 183.274L321.496 180.989H321.023H319.187V183.257H318.118V175.807H321.023C322.965 175.807 324.132 176.786 324.132 178.402C324.157 178.92 324.01 179.431 323.715 179.858C323.42 180.284 322.993 180.601 322.5 180.76L324.27 183.257L323.128 183.274ZM323.128 178.378C323.128 177.317 322.41 176.746 321.047 176.746H319.244V180.099H321.047C322.402 180.099 323.128 179.512 323.128 178.418V178.378Z" fill="#263238"/>
<path d="M327.306 166.366V204.743L339.072 192.984L350.235 204.147V166.366H327.306Z" fill="#710014"/>
<path d="M342.835 183.657C342.835 185.648 341.366 187.264 338.371 187.264C336.804 187.309 335.271 186.803 334.038 185.836L334.813 184.498C335.804 185.341 337.07 185.791 338.371 185.762C340.142 185.762 341.154 184.946 341.154 183.673C341.154 182.4 340.256 181.617 338.232 181.617H337.286V180.434L340.256 176.794H334.544V175.326H342.329V176.476L339.277 180.328C341.635 180.507 342.835 181.837 342.835 183.657Z" fill="white"/>
<path d="M243.16 225.322C243.16 227.933 241.275 229.508 238.158 229.508H235.196V233.139H233.482V221.128H238.158C241.275 221.128 243.16 222.76 243.16 225.322ZM241.447 225.322C241.447 223.609 240.304 222.638 238.109 222.638H235.196V228.015H238.109C240.304 228.015 241.447 227.036 241.447 225.322Z" fill="#263238"/>
<path d="M351.207 222.164H245.943C245.834 222.164 245.731 222.121 245.654 222.045C245.578 221.968 245.535 221.864 245.535 221.756C245.535 221.648 245.578 221.544 245.654 221.468C245.731 221.391 245.834 221.348 245.943 221.348H351.207C351.315 221.348 351.419 221.391 351.495 221.468C351.572 221.544 351.615 221.648 351.615 221.756C351.615 221.864 351.572 221.968 351.495 222.045C351.419 222.121 351.315 222.164 351.207 222.164Z" fill="black"/>
<path d="M351.207 226.399H245.943C245.834 226.399 245.731 226.357 245.654 226.28C245.578 226.203 245.535 226.1 245.535 225.991C245.535 225.883 245.578 225.78 245.654 225.703C245.731 225.626 245.834 225.583 245.943 225.583H351.207C351.314 225.586 351.417 225.629 351.493 225.705C351.569 225.781 351.613 225.884 351.615 225.991C351.615 226.1 351.572 226.203 351.495 226.28C351.419 226.357 351.315 226.399 351.207 226.399Z" fill="black"/>
<path d="M351.207 230.634H245.943C245.834 230.634 245.731 230.591 245.654 230.515C245.578 230.438 245.535 230.335 245.535 230.226C245.535 230.118 245.578 230.014 245.654 229.938C245.731 229.861 245.834 229.818 245.943 229.818H351.207C351.314 229.82 351.417 229.864 351.493 229.94C351.569 230.016 351.613 230.119 351.615 230.226C351.615 230.335 351.572 230.438 351.495 230.515C351.419 230.591 351.315 230.634 351.207 230.634Z" fill="black"/>
<path d="M351.207 234.869H245.943C245.834 234.869 245.731 234.826 245.654 234.75C245.578 234.673 245.535 234.569 245.535 234.461C245.535 234.353 245.578 234.249 245.654 234.173C245.731 234.096 245.834 234.053 245.943 234.053H351.207C351.314 234.055 351.417 234.099 351.493 234.175C351.569 234.251 351.613 234.354 351.615 234.461C351.615 234.569 351.572 234.673 351.495 234.75C351.419 234.826 351.315 234.869 351.207 234.869Z" fill="black"/>
<path d="M351.206 239.08H233.702C233.594 239.08 233.49 239.037 233.414 238.96C233.337 238.884 233.294 238.78 233.294 238.672C233.294 238.563 233.337 238.46 233.414 238.383C233.49 238.307 233.594 238.264 233.702 238.264H351.206C351.315 238.264 351.418 238.307 351.495 238.383C351.571 238.46 351.614 238.563 351.614 238.672C351.612 238.779 351.569 238.882 351.493 238.958C351.417 239.034 351.314 239.078 351.206 239.08Z" fill="black"/>
<path d="M351.206 243.348H233.702C233.594 243.348 233.49 243.305 233.414 243.228C233.337 243.152 233.294 243.048 233.294 242.94C233.294 242.832 233.337 242.728 233.414 242.651C233.49 242.575 233.594 242.532 233.702 242.532H351.206C351.315 242.532 351.418 242.575 351.495 242.651C351.571 242.728 351.614 242.832 351.614 242.94C351.612 243.047 351.569 243.15 351.493 243.226C351.417 243.302 351.314 243.346 351.206 243.348Z" fill="black"/>
<path d="M351.206 247.583H233.702C233.594 247.583 233.49 247.54 233.414 247.463C233.337 247.387 233.294 247.283 233.294 247.175C233.294 247.066 233.337 246.963 233.414 246.886C233.49 246.81 233.594 246.767 233.702 246.767H351.206C351.315 246.767 351.418 246.81 351.495 246.886C351.571 246.963 351.614 247.066 351.614 247.175C351.612 247.282 351.569 247.385 351.493 247.461C351.417 247.537 351.314 247.581 351.206 247.583Z" fill="black"/>
<path d="M351.206 251.817H233.702C233.594 251.817 233.49 251.774 233.414 251.698C233.337 251.621 233.294 251.518 233.294 251.409C233.294 251.301 233.337 251.197 233.414 251.121C233.49 251.044 233.594 251.001 233.702 251.001H351.206C351.315 251.001 351.418 251.044 351.495 251.121C351.571 251.197 351.614 251.301 351.614 251.409C351.614 251.518 351.571 251.621 351.495 251.698C351.418 251.774 351.315 251.817 351.206 251.817Z" fill="black"/>
<path d="M285.918 256.053H233.735C233.627 256.053 233.523 256.01 233.447 255.933C233.37 255.857 233.327 255.753 233.327 255.645C233.327 255.537 233.37 255.433 233.447 255.356C233.523 255.28 233.627 255.237 233.735 255.237H285.918C286.027 255.237 286.13 255.28 286.207 255.356C286.283 255.433 286.326 255.537 286.326 255.645C286.326 255.753 286.283 255.857 286.207 255.933C286.13 256.01 286.027 256.053 285.918 256.053Z" fill="black"/>
<path d="M351.207 265.412H246.759C246.65 265.412 246.547 265.369 246.47 265.293C246.394 265.216 246.351 265.112 246.351 265.004C246.351 264.896 246.394 264.792 246.47 264.716C246.547 264.639 246.65 264.596 246.759 264.596H351.207C351.314 264.598 351.417 264.642 351.493 264.718C351.569 264.794 351.612 264.897 351.615 265.004C351.615 265.112 351.572 265.216 351.495 265.293C351.419 265.369 351.315 265.412 351.207 265.412Z" fill="black"/>
<path d="M351.206 269.647H233.702C233.594 269.647 233.49 269.604 233.414 269.528C233.337 269.451 233.294 269.347 233.294 269.239C233.294 269.131 233.337 269.027 233.414 268.951C233.49 268.874 233.594 268.831 233.702 268.831H351.206C351.314 268.833 351.417 268.877 351.493 268.953C351.569 269.029 351.612 269.132 351.614 269.239C351.614 269.347 351.571 269.451 351.495 269.528C351.418 269.604 351.315 269.647 351.206 269.647Z" fill="black"/>
<path d="M351.206 273.89H233.702C233.594 273.89 233.49 273.847 233.414 273.771C233.337 273.694 233.294 273.59 233.294 273.482C233.294 273.374 233.337 273.27 233.414 273.194C233.49 273.117 233.594 273.074 233.702 273.074H351.206C351.315 273.074 351.418 273.117 351.495 273.194C351.571 273.27 351.614 273.374 351.614 273.482C351.612 273.59 351.569 273.692 351.493 273.768C351.417 273.844 351.314 273.888 351.206 273.89Z" fill="black"/>
<path d="M351.206 278.126H233.702C233.594 278.126 233.49 278.083 233.414 278.006C233.337 277.93 233.294 277.826 233.294 277.718C233.294 277.609 233.337 277.506 233.414 277.429C233.49 277.353 233.594 277.31 233.702 277.31H351.206C351.315 277.31 351.418 277.353 351.495 277.429C351.571 277.506 351.614 277.609 351.614 277.718C351.612 277.825 351.569 277.928 351.493 278.004C351.417 278.08 351.314 278.123 351.206 278.126Z" fill="black"/>
<path d="M351.206 282.328H233.702C233.594 282.328 233.49 282.285 233.414 282.208C233.337 282.132 233.294 282.028 233.294 281.92C233.294 281.812 233.337 281.708 233.414 281.631C233.49 281.555 233.594 281.512 233.702 281.512H351.206C351.315 281.512 351.418 281.555 351.495 281.631C351.571 281.708 351.614 281.812 351.614 281.92C351.614 282.028 351.571 282.132 351.495 282.208C351.418 282.285 351.315 282.328 351.206 282.328Z" fill="black"/>
<path d="M351.206 286.596H233.702C233.594 286.596 233.49 286.553 233.414 286.476C233.337 286.4 233.294 286.296 233.294 286.188C233.294 286.08 233.337 285.976 233.414 285.899C233.49 285.823 233.594 285.78 233.702 285.78H351.206C351.315 285.78 351.418 285.823 351.495 285.899C351.571 285.976 351.614 286.08 351.614 286.188C351.614 286.296 351.571 286.4 351.495 286.476C351.418 286.553 351.315 286.596 351.206 286.596Z" fill="black"/>
<path d="M351.206 290.831H233.702C233.594 290.831 233.49 290.788 233.414 290.711C233.337 290.635 233.294 290.531 233.294 290.423C233.294 290.314 233.337 290.211 233.414 290.134C233.49 290.058 233.594 290.015 233.702 290.015H351.206C351.315 290.015 351.418 290.058 351.495 290.134C351.571 290.211 351.614 290.314 351.614 290.423C351.614 290.531 351.571 290.635 351.495 290.711C351.418 290.788 351.315 290.831 351.206 290.831Z" fill="black"/>
<path d="M351.206 295.066H233.702C233.594 295.066 233.49 295.023 233.414 294.946C233.337 294.87 233.294 294.766 233.294 294.658C233.294 294.549 233.337 294.446 233.414 294.369C233.49 294.293 233.594 294.25 233.702 294.25H351.206C351.314 294.252 351.417 294.295 351.493 294.371C351.569 294.447 351.612 294.55 351.614 294.658C351.614 294.766 351.571 294.87 351.495 294.946C351.418 295.023 351.315 295.066 351.206 295.066Z" fill="black"/>
<path d="M326.718 299.301H233.735C233.627 299.301 233.523 299.258 233.447 299.181C233.37 299.105 233.327 299.001 233.327 298.893C233.327 298.785 233.37 298.681 233.447 298.604C233.523 298.528 233.627 298.485 233.735 298.485H326.759C326.867 298.485 326.971 298.528 327.048 298.604C327.124 298.681 327.167 298.785 327.167 298.893C327.167 298.95 327.156 299.007 327.133 299.059C327.11 299.111 327.076 299.158 327.034 299.197C326.991 299.235 326.941 299.264 326.887 299.282C326.833 299.3 326.775 299.307 326.718 299.301Z" fill="black"/>
<path d="M351.207 309.484H246.759C246.65 309.484 246.547 309.441 246.47 309.365C246.394 309.288 246.351 309.185 246.351 309.076C246.351 308.968 246.394 308.864 246.47 308.788C246.547 308.711 246.65 308.668 246.759 308.668H351.207C351.315 308.668 351.419 308.711 351.495 308.788C351.572 308.864 351.615 308.968 351.615 309.076C351.612 309.184 351.569 309.287 351.493 309.363C351.417 309.439 351.314 309.482 351.207 309.484Z" fill="black"/>
<path d="M351.206 313.719H233.702C233.594 313.719 233.49 313.676 233.414 313.6C233.337 313.523 233.294 313.42 233.294 313.311C233.294 313.203 233.337 313.099 233.414 313.023C233.49 312.946 233.594 312.903 233.702 312.903H351.206C351.315 312.903 351.418 312.946 351.495 313.023C351.571 313.099 351.614 313.203 351.614 313.311C351.614 313.42 351.571 313.523 351.495 313.6C351.418 313.676 351.315 313.719 351.206 313.719Z" fill="black"/>
<path d="M351.206 317.955H233.702C233.594 317.955 233.49 317.912 233.414 317.835C233.337 317.759 233.294 317.655 233.294 317.547C233.294 317.438 233.337 317.335 233.414 317.258C233.49 317.182 233.594 317.139 233.702 317.139H351.206C351.315 317.139 351.418 317.182 351.495 317.258C351.571 317.335 351.614 317.438 351.614 317.547C351.614 317.655 351.571 317.759 351.495 317.835C351.418 317.912 351.315 317.955 351.206 317.955Z" fill="black"/>
<path d="M318.558 322.19H233.735C233.627 322.19 233.523 322.147 233.447 322.07C233.37 321.994 233.327 321.89 233.327 321.782C233.327 321.673 233.37 321.57 233.447 321.493C233.523 321.417 233.627 321.374 233.735 321.374H318.599C318.707 321.374 318.811 321.417 318.888 321.493C318.964 321.57 319.007 321.673 319.007 321.782C319.007 321.89 318.964 321.994 318.888 322.07C318.811 322.147 318.707 322.19 318.599 322.19H318.558Z" fill="black"/>
<path d="M347.689 334.593V335.091L345.617 339.734H344.801L346.833 335.229H344.483V336.184H343.781V334.634L347.689 334.593Z" fill="#263238"/>
<path d="M351.794 338.216C351.794 339.089 351.158 339.791 349.852 339.791C349.167 339.808 348.497 339.586 347.959 339.162L348.302 338.583C348.732 338.954 349.284 339.151 349.852 339.138C350.619 339.138 351.06 338.787 351.06 338.224C351.06 337.661 350.676 337.326 349.795 337.326H349.379V336.812L350.676 335.229H348.228V334.593H351.623V335.091L350.276 336.723C351.272 336.845 351.794 337.424 351.794 338.216Z" fill="#263238"/>
<path opacity="0.4" d="M365.65 166.366H361.978V349.575H365.65V166.366Z" fill="black"/>
<path opacity="0.3" d="M365.65 199.243C365.65 198.229 364.828 197.407 363.814 197.407C362.8 197.407 361.978 198.229 361.978 199.243V217.521C361.978 218.535 362.8 219.357 363.814 219.357C364.828 219.357 365.65 218.535 365.65 217.521V199.243Z" fill="white"/>
<path d="M373.932 189.377H372.879C372.397 189.377 372.006 189.768 372.006 190.251V210.243C372.006 210.725 372.397 211.116 372.879 211.116H373.932C374.414 211.116 374.805 210.725 374.805 210.243V190.251C374.805 189.768 374.414 189.377 373.932 189.377Z" fill="#263238"/>
<path d="M373.932 164.897H372.879C372.397 164.897 372.006 165.288 372.006 165.771V185.763C372.006 186.245 372.397 186.636 372.879 186.636H373.932C374.414 186.636 374.805 186.245 374.805 185.763V165.771C374.805 165.288 374.414 164.897 373.932 164.897Z" fill="#263238"/>
<path opacity="0.2" d="M373.932 189.377H372.879C372.397 189.377 372.006 189.768 372.006 190.251V210.243C372.006 210.725 372.397 211.116 372.879 211.116H373.932C374.414 211.116 374.805 210.725 374.805 210.243V190.251C374.805 189.768 374.414 189.377 373.932 189.377Z" fill="white"/>
<path opacity="0.2" d="M373.932 164.897H372.879C372.397 164.897 372.006 165.288 372.006 165.771V185.763C372.006 186.245 372.397 186.636 372.879 186.636H373.932C374.414 186.636 374.805 186.245 374.805 185.763V165.771C374.805 165.288 374.414 164.897 373.932 164.897Z" fill="white"/>
<path d="M198.549 325.029H112.796L99.7398 257.546C99.4041 255.816 99.4552 254.032 99.8896 252.324C100.324 250.615 101.131 249.024 102.252 247.664C103.373 246.304 104.782 245.209 106.376 244.457C107.97 243.705 109.711 243.315 111.474 243.315H172.87C175.646 243.316 178.336 244.283 180.477 246.05C182.618 247.817 184.077 250.275 184.604 253.001L198.549 325.029Z" fill="#710014"/>
<path d="M137.153 325.029H112.796L99.7398 257.546C99.4041 255.816 99.4552 254.032 99.8896 252.324C100.324 250.615 101.131 249.024 102.252 247.664C103.373 246.304 104.782 245.209 106.376 244.457C107.97 243.705 109.711 243.315 111.474 243.315C114.25 243.317 116.938 244.285 119.079 246.052C121.22 247.819 122.68 250.276 123.208 253.001L137.153 325.029Z" fill="#710014"/>
<g opacity="0.2">
<path d="M198.549 325.029H112.796L99.7398 257.546C99.4041 255.816 99.4552 254.032 99.8896 252.324C100.324 250.615 101.131 249.024 102.252 247.664C103.373 246.304 104.782 245.209 106.376 244.457C107.97 243.705 109.711 243.315 111.474 243.315H172.87C175.646 243.316 178.336 244.283 180.477 246.05C182.618 247.817 184.077 250.275 184.604 253.001L198.549 325.029Z" fill="white"/>
</g>
<path opacity="0.2" d="M198.549 324.898H137.153L123.208 252.952C122.679 250.23 121.217 247.778 119.073 246.02C116.929 244.262 114.238 243.308 111.466 243.323H172.862C175.633 243.309 178.323 244.263 180.465 246.021C182.608 247.779 184.069 250.231 184.596 252.952L198.549 324.898Z" fill="white"/>
<path d="M169.141 235.71C169.141 235.71 165.918 248.341 156.746 246.367C147.574 244.392 147.272 232.356 147.272 232.356C147.272 232.356 145.86 236.093 146.187 238.133C145.698 237.251 145.437 236.26 145.429 235.251C145.42 234.242 145.664 233.247 146.138 232.356C146.138 232.356 143.69 233.653 143.69 235.71C143.405 234.95 143.401 234.113 143.678 233.351C143.954 232.588 144.494 231.949 145.199 231.548C145.199 231.548 139.732 232.788 141.935 225.249C144.139 217.709 151.197 221.748 150.454 226.211C152.222 224.524 154.541 223.533 156.982 223.421C160.997 223.209 173.082 228.096 169.141 235.71Z" fill="#263238"/>
<path d="M171.589 252.136C175.612 253.433 180.377 270.471 181.617 271.059C182.858 271.646 187.811 260.402 187.811 260.402L188.39 255.645L190.063 252.674C190.063 252.674 192.625 256.175 192.633 257.97C192.642 259.765 189.5 262.14 189.5 262.14C189.5 262.14 184.604 279.178 181.16 278.517C177.717 277.856 171.499 264.735 171.499 264.735L171.589 252.136Z" fill="#E4897B"/>
<path d="M213.042 307.42C212.968 307.542 212.895 307.591 212.805 307.575C210.357 307.134 203.829 310.7 195.946 314.813L193.727 315.955C193.474 316.094 193.221 316.216 192.968 316.339C188.97 318.387 184.726 320.419 180.524 322.132C175.587 324.14 170.732 325.625 166.424 325.943C165.836 325.992 165.273 326.008 164.71 326.008C145.452 326.008 151.727 294.225 151.727 294.225L174.73 292.462L177.448 297.138L178.917 299.668L182.238 298.778C183.87 298.329 186.383 297.75 189.239 297.146L189.9 296.999C190.855 296.795 191.85 296.6 192.87 296.396C200.377 294.87 208.994 293.401 212.185 293.384C214.47 293.368 214.07 305.91 213.042 307.42Z" fill="#E4897B"/>
<path d="M189.679 295.914L194.143 318.036C194.143 318.036 178.778 330.521 165.583 325.649C152.388 320.778 156.517 298.281 156.517 298.281L172.698 288.089L179.153 297.114L189.679 295.914Z" fill="#263238"/>
<path d="M188.92 295.49L193.563 319.431L196.354 317.228L192.633 295.025L188.92 295.49Z" fill="#263238"/>
<path opacity="0.4" d="M196.354 317.228L193.563 319.431L193.408 318.599L192.968 316.339L191.075 306.604L189.239 297.147L189.035 296.078L188.912 295.49L192.641 295.025L192.87 296.396L194.608 306.808L195.946 314.813L196.354 317.228Z" fill="white"/>
<path opacity="0.2" d="M213.042 307.42C212.968 307.542 212.895 307.591 212.805 307.575C210.357 307.134 203.829 310.7 195.946 314.813L196.354 317.261L193.564 319.464L193.409 318.55C190.444 320.587 187.313 322.369 184.049 323.879L180.532 322.083L175.432 319.391L177.521 300.37L180.54 304.556C180.54 304.556 187.582 306.261 191.067 306.596L191.883 306.669C192.837 306.751 193.776 306.8 194.641 306.808C195.261 306.808 195.832 306.808 196.387 306.759C202.36 306.343 208.831 306.122 213.042 307.42Z" fill="black"/>
<path d="M261.447 320.264L261.234 324.866H260.696L256.975 325.053C247.101 325.502 222.605 326.367 212.16 324.278L164.163 325.208L174.714 306.726L240.712 317.032L261.022 320.19L261.447 320.264Z" fill="#E4897B"/>
<path d="M269.378 314.772C269.288 316.576 269.223 318.199 269.15 319.668C269.052 321.724 268.978 323.544 268.897 325.29C268.758 328.326 266.269 326.31 260.883 325.935C260.753 325.935 260.704 325.503 260.696 324.874C260.696 323.528 260.892 321.251 260.998 320.166L261.063 319.546C261.721 318.933 262.345 318.285 262.932 317.604C264.431 315.998 265.579 314.097 266.302 312.022C267.371 308.277 269.566 310.513 269.378 314.772Z" fill="#263238"/>
<path d="M187.81 308.154L182.409 327.028L171.801 326.008C171.801 326.008 141.258 334.079 149.769 290.292L172.714 288.089L179.406 305.543L187.81 308.154Z" fill="#263238"/>
<path d="M186.652 307.126L180.548 327.33H184.155L189.5 308.154L186.652 307.126Z" fill="#263238"/>
<path opacity="0.4" d="M186.652 307.126L180.548 327.33H184.155L189.5 308.154L186.652 307.126Z" fill="white"/>
<path opacity="0.2" d="M269.15 319.692C269.052 321.749 268.978 323.568 268.897 325.315C268.758 328.35 266.269 326.335 260.883 325.959C260.753 325.959 260.704 325.527 260.696 324.898L256.975 325.086C251.891 322.222 244.735 318.885 240.655 317.032L260.965 320.19L261.03 319.57C261.688 318.957 262.312 318.309 262.899 317.628L269.15 319.692Z" fill="black"/>
<path d="M212.193 293.385C211.377 293.385 211.923 307.42 212.805 307.575C216.55 308.252 267.64 323.332 267.64 323.332L269.125 318.852C269.125 318.852 220.565 293.336 212.193 293.385Z" fill="#E4897B"/>
<path d="M267.036 324.197C266.547 324.017 268.946 318.085 268.946 318.085C268.946 318.085 273.98 315.637 276.037 312.283C278.093 308.929 279.594 311.687 278.248 315.735L274.919 325.755C273.964 328.627 272.112 326.016 267.036 324.197Z" fill="#263238"/>
<path d="M149.369 290.178L149.141 293.662L172.886 288.628L171.858 284.784L149.369 290.178Z" fill="black"/>
<path d="M156.826 287.763L155.703 287.971L156.764 293.692L157.888 293.483L156.826 287.763Z" fill="#263238"/>
<path d="M166.698 286.302L161.771 287.412L162.612 291.146L167.539 290.035L166.698 286.302Z" fill="white"/>
<path d="M170.585 284.352L169.461 284.56L170.523 290.281L171.646 290.072L170.585 284.352Z" fill="#263238"/>
<path d="M172.07 285.461L149.377 290.292C149.377 290.292 149.45 277.734 147.672 270.798C147.092 268.545 146.366 266.024 145.444 263.094C145.052 261.854 144.628 260.549 144.163 259.145C143.698 257.742 143.273 256.452 142.759 254.992C145.814 254.022 148.933 253.269 152.094 252.739C155.43 252.149 158.803 251.795 162.188 251.679C166.562 251.638 171.589 252.136 171.589 252.136C171.589 252.136 172.298 252.307 172.747 256.942C173.163 261.299 172.984 269.631 172.07 285.461Z" fill="#263238"/>
<path opacity="0.8" d="M172.07 285.461L149.377 290.292C149.377 290.292 149.377 290.014 149.377 289.525C149.336 288.407 149.304 286.261 149.189 283.748C149.018 279.667 148.634 274.47 147.688 270.798C147.28 269.166 146.79 267.444 146.203 265.51L145.901 264.514C145.762 264.057 145.623 263.584 145.468 263.103C145.077 261.862 144.652 260.549 144.179 259.145C143.706 257.742 143.29 256.452 142.784 255C145.834 254.025 148.951 253.272 152.111 252.748C155.446 252.155 158.819 251.798 162.204 251.679C166.578 251.679 171.605 252.136 171.605 252.136C171.605 252.136 172.315 252.315 172.772 256.942C173.163 261.299 172.984 269.631 172.07 285.461Z" fill="white"/>
<path d="M160.336 256.648C154.787 255.938 153.123 253.564 153.123 253.564C155.391 251.434 154.975 248.284 154.396 246.318C154.223 245.693 153.996 245.084 153.718 244.498L160.385 245.747C160.233 246.678 160.149 247.618 160.132 248.562C160.106 249.255 160.169 249.949 160.32 250.626C160.768 252.617 161.952 252.642 161.952 252.642C163.078 254.837 160.336 256.648 160.336 256.648Z" fill="#E4897B"/>
<path opacity="0.2" d="M160.132 248.562C160.106 249.255 160.169 249.949 160.32 250.626C157.668 250.275 155.66 248.178 154.396 246.318C154.223 245.693 153.996 245.084 153.718 244.498L160.385 245.747C160.233 246.678 160.149 247.618 160.132 248.562Z" fill="black"/>
<path d="M161.911 227.028C168.047 228.284 169.353 231.973 168.512 238.394C167.46 246.416 164.563 251.671 157.227 248.415C147.272 243.976 151.711 224.947 161.911 227.028Z" fill="#E4897B"/>
<path d="M164.612 237.236C164.915 238.254 165.34 239.232 165.876 240.149C165.646 240.365 165.36 240.514 165.051 240.579C164.741 240.644 164.42 240.622 164.122 240.516L164.612 237.236Z" fill="#DE5753"/>
<path d="M158.908 232.397C158.864 232.398 158.821 232.389 158.781 232.37C158.742 232.352 158.707 232.325 158.679 232.291C158.654 232.261 158.636 232.226 158.624 232.189C158.613 232.152 158.609 232.113 158.613 232.074C158.617 232.036 158.628 231.998 158.646 231.964C158.665 231.929 158.69 231.899 158.72 231.875C159.172 231.563 159.691 231.361 160.235 231.285C160.779 231.209 161.333 231.26 161.854 231.434C161.927 231.46 161.988 231.514 162.023 231.584C162.058 231.654 162.065 231.735 162.041 231.809C162.029 231.847 162.01 231.881 161.985 231.911C161.959 231.94 161.928 231.965 161.893 231.982C161.858 232 161.82 232.01 161.781 232.013C161.742 232.015 161.703 232.01 161.666 231.997C161.24 231.854 160.787 231.809 160.342 231.867C159.897 231.925 159.47 232.084 159.095 232.332C159.041 232.372 158.976 232.395 158.908 232.397Z" fill="#263238"/>
<path d="M168.618 233.67C168.541 233.668 168.468 233.635 168.414 233.58C168.154 233.281 167.831 233.043 167.469 232.884C167.106 232.724 166.713 232.647 166.317 232.658C166.278 232.666 166.237 232.667 166.198 232.659C166.158 232.652 166.121 232.636 166.088 232.614C166.054 232.591 166.026 232.562 166.005 232.528C165.983 232.494 165.969 232.456 165.963 232.416C165.957 232.376 165.959 232.336 165.969 232.297C165.979 232.258 165.997 232.222 166.022 232.19C166.047 232.158 166.078 232.132 166.113 232.113C166.148 232.094 166.187 232.082 166.227 232.078C166.715 232.05 167.203 232.132 167.654 232.32C168.105 232.508 168.507 232.797 168.83 233.164C168.858 233.191 168.879 233.223 168.894 233.259C168.909 233.295 168.917 233.333 168.917 233.372C168.917 233.41 168.909 233.449 168.894 233.484C168.879 233.52 168.858 233.552 168.83 233.58C168.774 233.636 168.698 233.668 168.618 233.67Z" fill="#263238"/>
<path d="M153.09 236.003C153.09 236.003 156.982 231.548 157.349 227.566C157.349 227.566 170.528 225.118 168.61 237.546C168.61 237.546 172.037 226.823 161.527 224.432C151.017 222.042 147.916 237.488 152.429 243.2C152.429 243.16 150.666 238.802 153.09 236.003Z" fill="#263238"/>
<path d="M153.824 237.505C153.91 236.782 153.705 236.055 153.255 235.483C152.806 234.911 152.148 234.541 151.425 234.453C149.483 234.274 147.778 237.994 152.323 239.904C152.968 240.173 153.49 239.586 153.824 237.505Z" fill="#E4897B"/>
<path d="M163.951 242.344C163.428 242.905 162.945 243.502 162.506 244.131L162.139 243.96C160.507 243.144 160.001 242.23 159.952 241.454C159.931 241.078 160.004 240.702 160.164 240.361C160.248 240.162 160.358 239.976 160.491 239.806C161.284 240.759 162.275 241.528 163.396 242.058C163.73 242.254 163.951 242.344 163.951 242.344Z" fill="#263238"/>
<path d="M163.396 242.067L162.955 242.589C161.405 241.822 160.418 241.079 160.165 240.369C160.248 240.171 160.358 239.984 160.491 239.814C161.284 240.768 162.275 241.536 163.396 242.067Z" fill="white"/>
<path d="M162.14 243.976C160.508 243.16 160.002 242.246 159.953 241.471C160.565 241.796 161.117 242.224 161.585 242.736C161.897 243.079 162.092 243.514 162.14 243.976Z" fill="#DE5753"/>
<path d="M161.682 227.468C161.682 227.468 157.154 237.064 150.813 235.628C144.473 234.192 156.909 223.388 156.909 223.388C156.909 223.388 168.088 221.593 172.086 228.145C176.085 234.698 168.61 237.513 168.61 237.513C168.61 237.513 170.593 229.81 161.682 227.468Z" fill="#263238"/>
<path d="M155.587 235.383C155.539 235.381 155.492 235.362 155.457 235.329C155.421 235.297 155.398 235.252 155.392 235.204C155.386 235.156 155.398 235.107 155.424 235.067C155.451 235.026 155.491 234.997 155.538 234.983C160.858 233.637 161.56 226.823 161.568 226.717C161.57 226.69 161.578 226.664 161.59 226.64C161.602 226.616 161.619 226.595 161.639 226.578C161.66 226.56 161.684 226.547 161.709 226.539C161.735 226.53 161.762 226.527 161.789 226.53C161.843 226.536 161.894 226.563 161.929 226.606C161.964 226.648 161.981 226.703 161.976 226.758C161.976 226.823 161.242 233.963 155.636 235.375L155.587 235.383Z" fill="#263238"/>
<path d="M161.022 236.306C161.022 236.787 160.728 237.171 160.401 237.162C160.075 237.154 159.83 236.738 159.846 236.257C159.863 235.775 160.148 235.383 160.467 235.441C160.785 235.498 161.046 235.816 161.022 236.306Z" fill="#263238"/>
<path d="M160.336 235.416L161.413 235.041C161.413 235.041 160.85 235.914 160.336 235.416Z" fill="#263238"/>
<path d="M167.084 236.444C167.084 236.934 166.783 237.317 166.456 237.26C166.13 237.203 165.885 236.844 165.909 236.354C165.934 235.865 166.203 235.481 166.53 235.498C166.856 235.514 167.101 235.955 167.084 236.444Z" fill="#263238"/>
<path d="M166.391 235.555L167.468 235.179C167.468 235.179 166.905 236.052 166.391 235.555Z" fill="#263238"/>
<path d="M168.798 270.014H185.338C185.569 270.005 185.791 269.92 185.969 269.772C186.147 269.625 186.272 269.423 186.325 269.198L192.16 243.372C192.192 243.276 192.2 243.173 192.183 243.072C192.167 242.972 192.125 242.877 192.063 242.796C192.001 242.716 191.92 242.652 191.827 242.61C191.735 242.568 191.633 242.549 191.531 242.556H174.991C174.761 242.568 174.541 242.654 174.363 242.801C174.185 242.948 174.059 243.148 174.004 243.372L168.169 269.198C168.137 269.295 168.129 269.398 168.146 269.498C168.163 269.599 168.204 269.693 168.266 269.774C168.328 269.855 168.409 269.919 168.502 269.961C168.595 270.003 168.696 270.021 168.798 270.014Z" fill="#263238"/>
<path opacity="0.2" d="M168.798 270.014H185.338C185.569 270.005 185.791 269.92 185.969 269.772C186.147 269.625 186.272 269.423 186.325 269.198L192.16 243.372C192.192 243.276 192.2 243.173 192.183 243.072C192.167 242.972 192.125 242.877 192.063 242.796C192.001 242.716 191.92 242.652 191.827 242.61C191.735 242.568 191.633 242.549 191.531 242.556H174.991C174.761 242.568 174.541 242.654 174.363 242.801C174.185 242.948 174.059 243.148 174.004 243.372L168.169 269.198C168.137 269.295 168.129 269.398 168.146 269.498C168.163 269.599 168.204 269.693 168.266 269.774C168.328 269.855 168.409 269.919 168.502 269.961C168.595 270.003 168.696 270.021 168.798 270.014Z" fill="white"/>
<path opacity="0.8" d="M181.691 253.311C182.711 253.311 183.323 254.356 183.004 255.645C182.686 256.934 181.65 257.97 180.638 257.97C179.626 257.97 179.006 256.926 179.316 255.645C180.328 255.645 181.397 254.584 181.691 253.311Z" fill="white"/>
<path opacity="0.2" d="M175.979 246.775H177.733C177.82 246.772 177.904 246.741 177.971 246.687C178.039 246.632 178.087 246.557 178.109 246.473L178.59 244.351C178.599 244.315 178.599 244.277 178.591 244.24C178.582 244.203 178.566 244.169 178.542 244.14C178.518 244.111 178.488 244.087 178.454 244.072C178.42 244.056 178.383 244.048 178.345 244.049H176.591C176.504 244.053 176.421 244.085 176.354 244.139C176.286 244.193 176.238 244.268 176.215 244.351L175.734 246.473C175.723 246.51 175.722 246.548 175.729 246.586C175.737 246.623 175.753 246.658 175.777 246.688C175.801 246.718 175.832 246.741 175.867 246.756C175.902 246.771 175.941 246.778 175.979 246.775Z" fill="black"/>
<path d="M177.447 244.849C177.398 245.061 177.513 245.24 177.692 245.24C177.794 245.227 177.889 245.182 177.963 245.112C178.038 245.041 178.089 244.949 178.108 244.849C178.157 244.637 178.051 244.457 177.872 244.457C177.769 244.469 177.672 244.513 177.596 244.584C177.519 244.654 177.467 244.747 177.447 244.849Z" fill="#263238"/>
<path d="M176.468 244.849C176.419 245.061 176.526 245.24 176.713 245.24C176.815 245.227 176.91 245.182 176.984 245.112C177.059 245.041 177.11 244.949 177.129 244.849C177.178 244.637 177.072 244.457 176.885 244.457C176.783 244.471 176.688 244.516 176.613 244.586C176.539 244.656 176.488 244.748 176.468 244.849Z" fill="#263238"/>
<path d="M177.195 245.975C177.146 246.195 177.252 246.366 177.439 246.366C177.541 246.354 177.637 246.31 177.712 246.239C177.787 246.169 177.837 246.076 177.855 245.975C177.904 245.763 177.798 245.591 177.611 245.591C177.51 245.603 177.415 245.647 177.34 245.715C177.266 245.784 177.215 245.875 177.195 245.975Z" fill="#263238"/>
<path d="M176.248 245.975C176.199 246.195 176.305 246.366 176.484 246.366C176.588 246.356 176.685 246.312 176.762 246.241C176.838 246.171 176.89 246.077 176.909 245.975C176.958 245.763 176.843 245.591 176.664 245.591C176.563 245.603 176.468 245.647 176.394 245.715C176.319 245.784 176.268 245.875 176.248 245.975Z" fill="#263238"/>
<path opacity="0.2" d="M174.012 243.388L168.169 269.215C168.137 269.311 168.129 269.414 168.146 269.514C168.163 269.615 168.204 269.71 168.266 269.79C168.328 269.871 168.409 269.935 168.502 269.977C168.595 270.019 168.696 270.037 168.798 270.031H169.483C169.382 270.036 169.282 270.016 169.19 269.974C169.098 269.931 169.019 269.867 168.957 269.787C168.896 269.706 168.856 269.612 168.839 269.512C168.823 269.413 168.831 269.31 168.863 269.215L174.697 243.388C174.752 243.164 174.877 242.963 175.055 242.816C175.233 242.669 175.454 242.583 175.685 242.572H174.991C174.762 242.584 174.542 242.67 174.365 242.817C174.189 242.964 174.065 243.165 174.012 243.388Z" fill="black"/>
<path opacity="0.2" d="M158.957 273.115C156.418 277.257 153.091 280.861 149.165 283.723C148.994 279.643 148.61 274.445 147.664 270.773C147.256 269.141 146.766 267.419 146.178 265.486L145.876 264.49C146.588 263.611 147.533 262.949 148.602 262.581C149.637 266.519 150.079 270.589 149.916 274.657L158.957 273.115Z" fill="black"/>
<path d="M142.792 255C141.119 255.4 141.976 275.742 144.693 280.565C147.411 285.388 166.497 266.008 166.497 266.008L165.338 262.499C165.338 262.499 148.602 273.352 148.243 273.18C147.884 273.009 148.61 262.572 148.61 262.572C148.61 262.572 147.957 258.77 146.162 256.615C144.367 254.461 142.792 255 142.792 255Z" fill="#E4897B"/>
<path d="M165.338 262.532L168.512 258.036L170.96 264.449C170.96 264.449 167.435 267.917 165.795 265.951L165.338 262.532Z" fill="#E4897B"/>
<path d="M173.318 256.379L174.649 261.463L170.968 264.449L168.512 258.035L173.318 256.379Z" fill="#E4897B"/>
<path d="M248.121 370.546H252.25L250.855 356.771H245.331L248.121 370.546Z" fill="#263238"/>
<path d="M205.592 370.546H209.72L208.325 356.771H202.801L205.592 370.546Z" fill="#263238"/>
<path d="M179.039 370.546H174.91L176.305 356.771H181.829L179.039 370.546Z" fill="#263238"/>
<path d="M221.569 370.546H217.448L218.835 356.771H224.359L221.569 370.546Z" fill="#263238"/>
<path d="M119.079 370.546H114.95L116.346 356.771H121.87L119.079 370.546Z" fill="#263238"/>
<path d="M161.609 370.546H157.48L158.875 356.771H164.4L161.609 370.546Z" fill="#263238"/>
<path opacity="0.1" d="M179.039 370.546H174.91L176.305 356.771H181.829L179.039 370.546Z" fill="white"/>
<path opacity="0.1" d="M221.569 370.546H217.448L218.835 356.771H224.359L221.569 370.546Z" fill="white"/>
<path opacity="0.1" d="M119.079 370.546H114.95L116.346 356.771H121.87L119.079 370.546Z" fill="white"/>
<path opacity="0.1" d="M161.609 370.546H157.48L158.875 356.771H164.4L161.609 370.546Z" fill="white"/>
<path d="M303.903 370.546H308.024L306.637 356.771H301.112L303.903 370.546Z" fill="#263238"/>
<path d="M261.365 370.546H265.494L264.099 356.771H258.583L261.365 370.546Z" fill="#263238"/>
<path d="M249.248 324.197H115.57C112.245 324.197 109.548 326.893 109.548 330.219V353.736C109.548 357.062 112.245 359.758 115.57 359.758H249.248C252.573 359.758 255.27 357.062 255.27 353.736V330.219C255.27 326.893 252.573 324.197 249.248 324.197Z" fill="#710014"/>
<path opacity="0.2" d="M249.248 324.197H115.57C112.245 324.197 109.548 326.893 109.548 330.219V353.736C109.548 357.062 112.245 359.758 115.57 359.758H249.248C252.573 359.758 255.27 357.062 255.27 353.736V330.219C255.27 326.893 252.573 324.197 249.248 324.197Z" fill="white"/>
<path opacity="0.2" d="M249.248 324.197H171.352C168.026 324.197 165.33 326.893 165.33 330.219V353.736C165.33 357.062 168.026 359.758 171.352 359.758H249.248C252.573 359.758 255.27 357.062 255.27 353.736V330.219C255.27 326.893 252.573 324.197 249.248 324.197Z" fill="white"/>
<path d="M307.812 324.197H174.134C170.808 324.197 168.112 326.893 168.112 330.219V353.736C168.112 357.062 170.808 359.758 174.134 359.758H307.812C311.137 359.758 313.834 357.062 313.834 353.736V330.219C313.834 326.893 311.137 324.197 307.812 324.197Z" fill="#710014"/>
<path opacity="0.2" d="M307.812 324.197H174.134C170.808 324.197 168.112 326.893 168.112 330.219V353.736C168.112 357.062 170.808 359.758 174.134 359.758H307.812C311.137 359.758 313.834 357.062 313.834 353.736V330.219C313.834 326.893 311.137 324.197 307.812 324.197Z" fill="white"/>
<path opacity="0.2" d="M307.811 324.197H229.916C226.59 324.197 223.894 326.893 223.894 330.219V353.736C223.894 357.062 226.59 359.758 229.916 359.758H307.811C311.137 359.758 313.834 357.062 313.834 353.736V330.219C313.834 326.893 311.137 324.197 307.811 324.197Z" fill="white"/>
<path d="M101.992 339.244H101.935C101.828 339.23 101.731 339.174 101.665 339.088C101.599 339.002 101.57 338.894 101.584 338.787C101.584 338.714 101.641 337.914 101.706 336.527C101.812 334.462 101.984 330.137 101.927 324.344C101.931 324.26 101.931 324.175 101.927 324.091C101.853 317.62 101.502 311.255 100.898 305.151C100.335 299.439 99.5357 293.94 98.5157 288.734C97.643 284.255 96.5344 279.827 95.1946 275.465C94.9906 274.821 94.7866 274.176 94.5745 273.54C94.3623 272.903 94.2236 272.487 94.0359 271.965C93.5626 270.61 93.1301 269.305 92.7548 268.097C91.9388 265.445 91.1881 262.793 90.5761 260.223C90.2007 258.672 89.8661 257.154 89.5887 255.702C88.4814 250.196 87.848 244.605 87.6956 238.99C87.6385 236.779 87.6956 234.576 87.7935 232.462C87.9165 230.218 88.1562 227.982 88.5116 225.763C88.5116 225.608 88.5605 225.461 88.585 225.322V225.11C88.5914 225.007 88.6316 224.91 88.6993 224.833C88.7372 224.794 88.7823 224.764 88.832 224.743C88.8818 224.723 88.9351 224.712 88.9889 224.712C89.0428 224.712 89.0961 224.723 89.1458 224.743C89.1956 224.764 89.2407 224.794 89.2786 224.833C89.3306 224.886 89.3689 224.95 89.3903 225.021C89.4116 225.093 89.4153 225.168 89.401 225.241V225.453C89.401 225.6 89.401 225.755 89.3276 225.91C88.9745 228.099 88.7375 230.305 88.6177 232.519C88.5034 234.633 88.4708 236.82 88.5279 239.007C88.6802 244.576 89.3053 250.123 90.3965 255.588C90.674 257.032 91.0085 258.533 91.3839 260.067C91.9877 262.622 92.7221 265.257 93.5463 267.893C93.9217 269.092 94.3623 270.341 94.8193 271.736C95.0069 272.259 95.1865 272.789 95.366 273.319C95.5455 273.85 95.7821 274.609 95.978 275.253C97.3231 279.648 98.4398 284.109 99.3236 288.619C100.344 293.85 101.151 299.399 101.714 305.111C102.326 311.239 102.669 317.628 102.751 324.107C102.751 324.205 102.751 324.295 102.751 324.401C102.816 330.186 102.645 334.536 102.53 336.641C102.473 338.044 102.416 338.885 102.408 338.958C102.38 339.045 102.323 339.12 102.248 339.171C102.173 339.223 102.083 339.249 101.992 339.244Z" fill="#710014"/>
<path d="M88.9766 225.208C90.4097 223.813 92.1682 222.798 94.0929 222.254L88.9766 225.208Z" fill="#710014"/>
<path d="M88.9766 225.6C88.9225 225.608 88.8674 225.608 88.8133 225.6C88.715 225.555 88.6379 225.474 88.5983 225.373C88.5587 225.273 88.5597 225.161 88.6012 225.061C88.6205 225.013 88.6481 224.969 88.6828 224.93C88.6857 224.917 88.6857 224.903 88.6828 224.89C89.3919 224.206 90.1777 223.606 91.0247 223.103C91.951 222.556 92.9438 222.131 93.9786 221.838C94.0868 221.809 94.2022 221.824 94.2994 221.879C94.3966 221.935 94.4676 222.027 94.4968 222.136C94.526 222.244 94.511 222.359 94.4552 222.456C94.3993 222.554 94.3072 222.625 94.1989 222.654C93.2322 222.927 92.305 223.325 91.4409 223.837C90.6539 224.299 89.9205 224.846 89.254 225.469C89.2186 225.508 89.1759 225.54 89.1283 225.562C89.0807 225.584 89.0291 225.597 88.9766 225.6Z" fill="#710014"/>
<path d="M88.1687 232.838C88.073 232.836 87.9808 232.802 87.9076 232.74L85.1495 230.455C85.0679 230.384 85.0166 230.284 85.006 230.177C84.9953 230.069 85.0263 229.961 85.0924 229.876C85.1624 229.792 85.2622 229.74 85.3705 229.729C85.4787 229.718 85.5869 229.751 85.6718 229.819L88.4299 232.112C88.4721 232.146 88.5071 232.188 88.5328 232.235C88.5586 232.283 88.5746 232.335 88.5799 232.389C88.5853 232.443 88.5798 232.498 88.5638 232.55C88.5479 232.601 88.5217 232.649 88.487 232.691C88.4471 232.736 88.3982 232.773 88.3434 232.798C88.2886 232.823 88.2291 232.837 88.1687 232.838Z" fill="#710014"/>
<path d="M93.1217 268.399C93.0119 268.393 92.9083 268.346 92.8313 268.267C92.7543 268.189 92.7095 268.085 92.7056 267.975C92.8081 267.21 92.997 266.46 93.2686 265.739C93.6302 264.717 94.1417 263.754 94.7864 262.883C95.2609 262.227 95.8084 261.628 96.4184 261.096C96.5006 261.024 96.6078 260.988 96.7165 260.996C96.8251 261.004 96.9263 261.054 96.9977 261.137C97.0691 261.219 97.105 261.326 97.0973 261.435C97.0897 261.543 97.0392 261.644 96.9569 261.716C96.3868 262.201 95.8723 262.749 95.4228 263.348C94.8285 264.159 94.3608 265.056 94.0356 266.008C93.7985 266.656 93.6263 267.325 93.5216 268.007C93.5239 268.059 93.5153 268.111 93.4965 268.16C93.4776 268.208 93.4488 268.253 93.412 268.289C93.3752 268.326 93.331 268.355 93.2825 268.374C93.2339 268.393 93.1819 268.401 93.1299 268.399H93.1217Z" fill="#710014"/>
<path d="M95.5698 275.751C95.4903 275.75 95.4128 275.727 95.3463 275.683C95.2798 275.64 95.2271 275.578 95.1944 275.506C94.803 274.644 94.2391 273.871 93.5374 273.235C92.8356 272.599 92.011 272.114 91.1144 271.81C91.0616 271.795 91.0125 271.769 90.9698 271.735C90.9271 271.7 90.8919 271.657 90.8661 271.609C90.8404 271.56 90.8246 271.507 90.8199 271.453C90.8151 271.398 90.8215 271.343 90.8385 271.291C90.8555 271.239 90.8829 271.19 90.9189 271.149C90.955 271.108 90.9991 271.074 91.0484 271.05C91.0978 271.026 91.1515 271.012 91.2063 271.01C91.2611 271.007 91.3159 271.015 91.3674 271.034C92.3739 271.372 93.2999 271.914 94.0876 272.626C94.8752 273.338 95.5076 274.204 95.9451 275.172C95.9681 275.22 95.9811 275.273 95.9832 275.327C95.9854 275.38 95.9766 275.434 95.9576 275.484C95.9386 275.534 95.9096 275.58 95.8724 275.619C95.8352 275.658 95.7905 275.689 95.7411 275.71C95.6874 275.735 95.6291 275.749 95.5698 275.751Z" fill="#710014"/>
<path d="M101.812 312.234C100.874 311.206 100.025 307.151 99.5685 304.98C99.4542 304.458 99.3645 304.017 99.291 303.691" fill="#710014"/>
<path d="M101.812 312.651C101.754 312.65 101.696 312.638 101.643 312.614C101.589 312.59 101.542 312.555 101.502 312.512C100.572 311.484 99.8049 308.13 99.1603 305.062C99.0542 304.548 98.9645 304.107 98.891 303.789C98.8787 303.735 98.8771 303.68 98.8862 303.626C98.8953 303.571 98.915 303.519 98.9442 303.473C98.9733 303.426 99.0114 303.386 99.0562 303.354C99.101 303.322 99.1516 303.299 99.2052 303.287C99.2588 303.275 99.3142 303.273 99.3685 303.282C99.4227 303.291 99.4746 303.311 99.5212 303.34C99.5678 303.369 99.6082 303.407 99.6401 303.452C99.6719 303.497 99.6947 303.548 99.707 303.601C99.7886 303.919 99.8784 304.368 99.9926 304.899C100.409 306.882 101.274 311.01 102.139 311.965C102.189 312.025 102.222 312.097 102.233 312.175C102.245 312.252 102.234 312.331 102.202 312.402C102.171 312.474 102.12 312.535 102.055 312.579C101.991 312.623 101.915 312.648 101.837 312.651H101.812Z" fill="#710014"/>
<path d="M90.9513 260.541C90.8458 260.543 90.7435 260.504 90.6659 260.433C90.5883 260.361 90.5415 260.263 90.5351 260.157C90.4862 259.488 89.4417 243.69 98.1566 237.366C98.2004 237.335 98.2501 237.313 98.3026 237.301C98.3551 237.289 98.4095 237.287 98.4626 237.296C98.5157 237.305 98.5665 237.325 98.612 237.354C98.6575 237.383 98.6969 237.42 98.7278 237.464C98.7606 237.507 98.7844 237.556 98.7976 237.609C98.8109 237.661 98.8134 237.716 98.805 237.769C98.7967 237.823 98.7775 237.874 98.7488 237.919C98.7201 237.965 98.6824 238.005 98.638 238.036C90.2904 244.082 91.343 259.937 91.3593 260.068C91.3638 260.122 91.3573 260.176 91.3403 260.228C91.3233 260.28 91.2962 260.328 91.2604 260.369C91.2247 260.41 91.1811 260.443 91.1322 260.467C91.0833 260.491 91.0301 260.505 90.9758 260.508L90.9513 260.541Z" fill="#710014"/>
<path d="M91.6695 294.911C90.6739 298.738 99.1195 305.568 99.1195 305.568C99.1195 305.568 109.834 303.748 110.829 299.921C111.825 296.094 108.838 290.031 103.542 288.652C98.2464 287.273 92.6731 291.084 91.6695 294.911Z" fill="#710014"/>
<path d="M80.6371 249.492C81.8448 253.458 89.6702 255.963 89.6702 255.963C89.6702 255.963 94.7702 249.517 93.5626 245.551C92.3549 241.585 87.8995 237.391 84.3336 238.444C80.7677 239.496 79.4294 245.527 80.6371 249.492Z" fill="#710014"/>
<path d="M101.502 261.438C100.553 262.312 99.4447 262.996 98.238 263.454C97.6396 263.676 96.9918 263.73 96.3648 263.611C95.7377 263.492 95.1552 263.203 94.6803 262.777C93.595 261.634 93.7908 259.774 94.3783 258.305C95.5452 255.4 100.09 250.357 103.819 251.581C109.238 253.352 103.787 259.586 101.502 261.438Z" fill="#710014"/>
<path d="M91.0087 269.174C91.7349 269.99 92.5183 271.051 92.1837 272.112C91.9871 272.562 91.6462 272.934 91.2147 273.169C90.7832 273.404 90.2858 273.488 89.801 273.409C88.8342 273.229 87.9215 272.83 87.1327 272.242C85.2069 271.034 81.2656 268.48 83.5912 265.828C85.9168 263.176 89.4664 267.428 91.0087 269.174Z" fill="#710014"/>
<path d="M105.027 232.307C105.431 232.31 105.823 232.441 106.147 232.682C106.472 232.922 106.711 233.26 106.83 233.645C107.034 234.559 106.3 235.4 105.582 236.012C103.795 237.521 98.393 241.618 96.9895 237.954C95.6594 234.494 102.555 232.136 105.027 232.307Z" fill="#710014"/>
<path d="M94.2315 220.524C95.3821 220.581 96.5082 220.116 97.6669 220.141C98.8256 220.165 100.115 221.03 99.9354 222.172C99.7559 223.315 98.4666 223.625 97.3976 223.739C95.5842 223.926 93.7539 223.871 91.9549 223.576C91.529 223.556 91.1264 223.375 90.8288 223.07C90.3311 222.401 91.0328 221.438 91.8162 221.177C92.5995 220.916 93.4971 220.94 94.1989 220.491L94.2315 220.524Z" fill="#710014"/>
<path d="M83.3462 228.921C82.1956 229.011 81.0532 228.562 79.9027 228.611C78.7521 228.66 77.4547 229.557 77.6831 230.691C77.9116 231.826 79.1764 232.111 80.2454 232.201C82.0628 232.358 83.893 232.273 85.6881 231.948C86.113 231.923 86.5113 231.732 86.7979 231.418C87.2793 230.74 86.5612 229.786 85.7779 229.541C84.9945 229.296 84.0887 229.345 83.3788 228.921H83.3462Z" fill="#710014"/>
<g opacity="0.2">
<path d="M91.6695 294.911C90.6739 298.738 99.1195 305.568 99.1195 305.568C99.1195 305.568 109.834 303.748 110.829 299.921C111.825 296.094 108.838 290.031 103.542 288.652C98.2464 287.273 92.6731 291.084 91.6695 294.911Z" fill="black"/>
<path d="M80.6371 249.492C81.8448 253.458 89.6702 255.963 89.6702 255.963C89.6702 255.963 94.7702 249.517 93.5626 245.551C92.3549 241.585 87.8995 237.391 84.3336 238.444C80.7677 239.496 79.4294 245.527 80.6371 249.492Z" fill="black"/>
<path d="M101.502 261.438C100.553 262.312 99.4447 262.996 98.238 263.454C97.6396 263.676 96.9918 263.73 96.3648 263.611C95.7377 263.492 95.1552 263.203 94.6803 262.777C93.595 261.634 93.7908 259.774 94.3783 258.305C95.5452 255.4 100.09 250.357 103.819 251.581C109.238 253.352 103.787 259.586 101.502 261.438Z" fill="black"/>
<path d="M91.0087 269.174C91.7349 269.99 92.5183 271.051 92.1837 272.112C91.9871 272.562 91.6462 272.934 91.2147 273.169C90.7832 273.404 90.2858 273.488 89.801 273.409C88.8342 273.229 87.9215 272.83 87.1327 272.242C85.2069 271.034 81.2656 268.48 83.5912 265.828C85.9168 263.176 89.4664 267.428 91.0087 269.174Z" fill="black"/>
<path d="M105.027 232.307C105.431 232.31 105.823 232.441 106.147 232.682C106.472 232.922 106.711 233.26 106.83 233.645C107.034 234.559 106.3 235.4 105.582 236.012C103.795 237.521 98.393 241.618 96.9895 237.954C95.6594 234.494 102.555 232.136 105.027 232.307Z" fill="black"/>
<path d="M94.2315 220.524C95.3821 220.581 96.5082 220.116 97.6669 220.141C98.8256 220.165 100.115 221.03 99.9354 222.172C99.7559 223.315 98.4666 223.625 97.3976 223.739C95.5842 223.926 93.7539 223.871 91.9549 223.576C91.529 223.556 91.1264 223.375 90.8288 223.07C90.3311 222.401 91.0328 221.438 91.8162 221.177C92.5995 220.916 93.4971 220.94 94.1989 220.491L94.2315 220.524Z" fill="black"/>
<path d="M83.3462 228.921C82.1956 229.011 81.0532 228.562 79.9027 228.611C78.7521 228.66 77.4547 229.557 77.6831 230.691C77.9116 231.826 79.1764 232.111 80.2454 232.201C82.0628 232.358 83.893 232.273 85.6881 231.948C86.113 231.923 86.5113 231.732 86.7979 231.418C87.2793 230.74 86.5612 229.786 85.7779 229.541C84.9945 229.296 84.0887 229.345 83.3788 228.921H83.3462Z" fill="black"/>
</g>
<path d="M88.6585 226.726C88.6049 226.722 88.5526 226.707 88.5046 226.683C88.4567 226.658 88.4141 226.625 88.3792 226.584C88.3443 226.543 88.3178 226.495 88.3014 226.444C88.2849 226.393 88.2787 226.339 88.2832 226.285C88.4382 224.041 88.1934 221.887 87.7772 221.765C87.6724 221.732 87.5842 221.661 87.5309 221.565C87.4777 221.469 87.4636 221.357 87.4916 221.251C87.5237 221.146 87.5956 221.058 87.6918 221.006C87.788 220.955 87.9008 220.943 88.0057 220.973C89.3032 221.357 89.2052 224.857 89.0992 226.342C89.0961 226.397 89.0821 226.45 89.0582 226.499C89.0342 226.548 89.0007 226.591 88.9597 226.627C88.9186 226.663 88.8708 226.69 88.8191 226.707C88.7674 226.724 88.7128 226.73 88.6585 226.726Z" fill="#710014"/>
<path d="M89.156 222.833C89.4171 221.136 89.6619 219.349 89.0417 217.75C88.4216 216.15 86.5937 214.894 84.9617 215.514C83.1747 216.208 82.8565 218.778 83.8601 220.41C84.8638 222.042 86.7161 222.923 88.4542 223.723L88.952 223.037L89.156 222.833Z" fill="#710014"/>
<g opacity="0.2">
<path d="M89.156 222.833C89.4171 221.136 89.6619 219.349 89.0417 217.75C88.4216 216.15 86.5937 214.894 84.9617 215.514C83.1747 216.208 82.8565 218.778 83.8601 220.41C84.8638 222.042 86.7161 222.923 88.4542 223.723L88.952 223.037L89.156 222.833Z" fill="black"/>
</g>
<path d="M104.081 345.789C104.081 345.854 103.779 346.164 104.954 346.246C107.843 346.425 112.943 346.376 114.787 343.92C117.423 340.419 111.115 340.591 111.67 338.632C112.225 336.674 119.014 338.461 120.303 335.686C121.592 332.912 116.623 333.328 116.811 331.892C116.998 330.456 122.229 332.455 123.844 329.518C125.46 326.58 120.988 328.057 121.682 326.841C122.376 325.625 127.973 320.631 125.615 319.424C123.257 318.216 118.018 323.446 116.256 323.977C114.493 324.507 113.93 319.236 111.637 320.933C109.344 322.63 111.123 330.627 108.422 331.541C106.415 332.227 107.435 329.403 104.938 329.452C101.535 329.518 100.744 340.631 104.081 345.789Z" fill="#710014"/>
<g opacity="0.3">
<path d="M104.081 345.789C104.081 345.854 103.779 346.164 104.954 346.246C107.843 346.425 112.943 346.376 114.787 343.92C117.423 340.419 111.115 340.591 111.67 338.632C112.225 336.674 119.014 338.461 120.303 335.686C121.592 332.912 116.623 333.328 116.811 331.892C116.998 330.456 122.229 332.455 123.844 329.518C125.46 326.58 120.988 328.057 121.682 326.841C122.376 325.625 127.973 320.631 125.615 319.424C123.257 318.216 118.018 323.446 116.256 323.977C114.493 324.507 113.93 319.236 111.637 320.933C109.344 322.63 111.123 330.627 108.422 331.541C106.415 332.227 107.435 329.403 104.938 329.452C101.535 329.518 100.744 340.631 104.081 345.789Z" fill="black"/>
</g>
<path opacity="0.2" d="M116.027 331.117C115.044 330.94 114.042 330.901 113.049 331.003C113.502 330.527 113.987 330.083 114.501 329.673C114.551 329.643 114.595 329.603 114.628 329.555C114.662 329.507 114.685 329.453 114.697 329.395C114.708 329.338 114.707 329.279 114.694 329.222C114.681 329.165 114.656 329.111 114.621 329.065C114.586 329.018 114.541 328.979 114.49 328.951C114.439 328.923 114.382 328.905 114.324 328.9C114.266 328.895 114.207 328.903 114.152 328.922C114.097 328.941 114.046 328.972 114.003 329.012C113.157 329.72 112.365 330.492 111.637 331.321C111.57 331.359 111.518 331.42 111.49 331.492C111.147 331.876 110.788 332.308 110.413 332.773C110.568 329.767 111.486 326.849 113.081 324.295C113.112 324.251 113.134 324.201 113.145 324.148C113.157 324.095 113.158 324.04 113.148 323.987C113.138 323.934 113.117 323.884 113.088 323.838C113.058 323.793 113.02 323.754 112.975 323.724C112.885 323.664 112.775 323.641 112.668 323.661C112.561 323.681 112.467 323.741 112.404 323.83C110.5 326.823 109.524 330.312 109.597 333.859C108.55 335.316 107.612 336.849 106.79 338.445C106.74 338.497 106.706 338.562 106.692 338.632C106.325 339.358 105.966 340.134 105.615 340.942C105.084 339.14 104.928 337.249 105.158 335.385C105.169 335.278 105.138 335.17 105.071 335.086C105.004 335.002 104.906 334.948 104.799 334.936C104.746 334.928 104.691 334.931 104.639 334.944C104.587 334.957 104.538 334.981 104.496 335.014C104.453 335.047 104.417 335.088 104.391 335.135C104.365 335.181 104.348 335.233 104.342 335.287C104.037 337.588 104.318 339.928 105.158 342.092C104.122 344.691 103.335 347.382 102.808 350.13C102.789 350.237 102.812 350.347 102.873 350.437C102.934 350.527 103.028 350.589 103.134 350.611H103.216C103.311 350.611 103.403 350.577 103.476 350.516C103.549 350.455 103.599 350.37 103.616 350.277C104.33 346.337 105.61 342.522 107.418 338.95C108.051 338.374 108.822 337.969 109.657 337.776C110.491 337.583 111.362 337.608 112.184 337.849C112.292 337.881 112.409 337.87 112.508 337.816C112.608 337.762 112.682 337.671 112.714 337.563C112.747 337.455 112.735 337.338 112.681 337.239C112.628 337.139 112.537 337.065 112.428 337.033C111.042 336.59 109.536 336.717 108.242 337.384C109.337 335.448 110.631 333.633 112.102 331.966C113.335 331.663 114.619 331.635 115.864 331.884C115.917 331.893 115.972 331.891 116.025 331.879C116.078 331.867 116.128 331.845 116.173 331.813C116.217 331.782 116.255 331.742 116.284 331.696C116.313 331.65 116.332 331.599 116.341 331.545C116.35 331.492 116.349 331.437 116.337 331.384C116.325 331.331 116.302 331.281 116.271 331.236C116.239 331.192 116.199 331.154 116.153 331.126C116.107 331.097 116.056 331.077 116.003 331.068L116.027 331.117Z" fill="black"/>
<path d="M102.702 348.906C100.466 349.044 96.5654 347.135 94.9823 345.185C93.3993 343.234 97.6996 344.287 97.1937 342.737C96.6878 341.186 91.4817 342.565 90.3964 340.289C89.3111 338.012 93.1463 338.395 92.9423 337.229C92.7383 336.062 88.8133 336.47 87.4425 334.079C86.0716 331.688 89.5967 332.904 89.0092 331.916C88.4217 330.929 83.8929 326.849 85.6718 325.878C87.4506 324.907 91.7101 329.142 93.0973 329.615C94.4845 330.089 94.6641 326.963 96.5001 328.351C98.3361 329.738 97.3161 336.217 99.4213 336.976C101.004 337.539 100.237 334.626 102.033 335.295C105.256 336.437 103.624 348.848 102.702 348.906Z" fill="#710014"/>
<g opacity="0.2">
<path d="M102.702 348.906C100.466 349.044 96.5654 347.135 94.9823 345.185C93.3993 343.234 97.6996 344.287 97.1937 342.737C96.6878 341.186 91.4817 342.565 90.3964 340.289C89.3111 338.012 93.1463 338.395 92.9423 337.229C92.7383 336.062 88.8133 336.47 87.4425 334.079C86.0716 331.688 89.5967 332.904 89.0092 331.916C88.4217 330.929 83.8929 326.849 85.6718 325.878C87.4506 324.907 91.7101 329.142 93.0973 329.615C94.4845 330.089 94.6641 326.963 96.5001 328.351C98.3361 329.738 97.3161 336.217 99.4213 336.976C101.004 337.539 100.237 334.626 102.033 335.295C105.256 336.437 103.624 348.848 102.702 348.906Z" fill="black"/>
</g>
<path opacity="0.2" d="M103.322 350.456C102.879 348.792 102.334 347.157 101.69 345.56C101.69 345.56 101.69 345.56 101.69 345.511C102.479 343.557 102.741 341.429 102.449 339.342C102.442 339.288 102.425 339.237 102.399 339.19C102.373 339.143 102.337 339.101 102.295 339.068C102.252 339.034 102.204 339.01 102.152 338.995C102.1 338.981 102.045 338.976 101.992 338.983C101.938 338.989 101.886 339.006 101.839 339.033C101.792 339.059 101.751 339.095 101.718 339.137C101.684 339.179 101.66 339.228 101.645 339.28C101.631 339.332 101.626 339.386 101.633 339.44C101.846 341.134 101.693 342.853 101.184 344.483C100.64 343.253 100.071 342.089 99.4785 340.99C99.4964 340.921 99.4952 340.848 99.4751 340.779C99.455 340.71 99.4167 340.648 99.3643 340.599C99.3112 340.542 99.2508 340.493 99.1847 340.452C98.7196 339.636 98.2545 338.82 97.7812 338.102C97.8377 334.976 96.9598 331.904 95.2598 329.281C95.2296 329.237 95.191 329.199 95.1462 329.171C95.1014 329.142 95.0513 329.122 94.9989 329.113C94.9464 329.104 94.8927 329.106 94.8408 329.118C94.7889 329.129 94.7399 329.152 94.6967 329.183C94.652 329.213 94.6137 329.252 94.5841 329.297C94.5545 329.342 94.5341 329.393 94.5243 329.446C94.5144 329.499 94.5152 329.554 94.5266 329.607C94.538 329.66 94.5598 329.71 94.5907 329.754C95.9378 331.886 96.7444 334.314 96.9407 336.829C95.3299 334.403 93.4672 332.155 91.3838 330.121C91.3459 330.083 91.3007 330.053 91.251 330.032C91.2013 330.011 91.148 330 91.0941 330C91.0402 330 90.9869 330.011 90.9372 330.032C90.8875 330.053 90.8424 330.083 90.8044 330.121C90.7297 330.197 90.6878 330.3 90.6878 330.407C90.6878 330.514 90.7297 330.616 90.8044 330.692C92.3501 332.188 93.7693 333.809 95.0476 335.539C93.7262 335.141 92.3457 334.976 90.9676 335.05C90.8609 335.06 90.762 335.11 90.6908 335.191C90.6197 335.271 90.5815 335.375 90.5841 335.482C90.5925 335.591 90.6434 335.693 90.7258 335.764C90.8083 335.836 90.9156 335.873 91.0247 335.866C92.5459 335.785 94.0675 336.015 95.4964 336.543H95.5454H95.6351H95.7167C95.7355 336.548 95.7551 336.548 95.7739 336.543C96.4267 337.465 97.1039 338.493 97.7731 339.603C96.6648 339.176 95.4438 339.142 94.3132 339.505C94.2102 339.539 94.1245 339.612 94.0742 339.708C94.0239 339.804 94.0131 339.915 94.0439 340.019C94.0777 340.122 94.1503 340.208 94.2463 340.258C94.3423 340.309 94.4541 340.319 94.558 340.289C95.2277 340.076 95.9379 340.025 96.6311 340.138C97.3244 340.252 97.9812 340.527 98.5483 340.941C100.255 343.986 101.577 347.231 102.481 350.603C102.505 350.689 102.556 350.765 102.626 350.82C102.697 350.874 102.784 350.904 102.873 350.905H102.979C103.082 350.887 103.175 350.83 103.238 350.747C103.302 350.664 103.332 350.56 103.322 350.456Z" fill="black"/>
<path d="M118.467 355.197C118.467 363.675 122.212 370.546 103.118 370.546C86.1449 370.546 87.7606 363.675 87.7606 355.197C87.7606 346.719 94.6476 344.344 103.118 344.344C111.588 344.344 118.467 346.711 118.467 355.197Z" fill="#263238"/>
<path d="M120.14 344.148H86.145V352.561H120.14V344.148Z" fill="#263238"/>
<path opacity="0.2" d="M120.14 344.148H86.145V352.561H120.14V344.148Z" fill="white"/>
</svg>
