<svg width="40" height="40" viewBox="0 0 40 40" fill="none" xmlns="http://www.w3.org/2000/svg">
<circle cx="20" cy="20" r="20" fill="#F2F1ED"/>
<path d="M14.75 7.5H25.25C29.25 7.5 32.5 10.75 32.5 14.75V25.25C32.5 27.1728 31.7362 29.0169 30.3765 30.3765C29.0169 31.7362 27.1728 32.5 25.25 32.5H14.75C10.75 32.5 7.5 29.25 7.5 25.25V14.75C7.5 12.8272 8.26384 10.9831 9.62348 9.62348C10.9831 8.26384 12.8272 7.5 14.75 7.5ZM14.5 10C13.3065 10 12.1619 10.4741 11.318 11.318C10.4741 12.1619 10 13.3065 10 14.5V25.5C10 27.9875 12.0125 30 14.5 30H25.5C26.6935 30 27.8381 29.5259 28.682 28.682C29.5259 27.8381 30 26.6935 30 25.5V14.5C30 12.0125 27.9875 10 25.5 10H14.5ZM26.5625 11.875C26.9769 11.875 27.3743 12.0396 27.6674 12.3326C27.9604 12.6257 28.125 13.0231 28.125 13.4375C28.125 13.8519 27.9604 14.2493 27.6674 14.5424C27.3743 14.8354 26.9769 15 26.5625 15C26.1481 15 25.7507 14.8354 25.4576 14.5424C25.1646 14.2493 25 13.8519 25 13.4375C25 13.0231 25.1646 12.6257 25.4576 12.3326C25.7507 12.0396 26.1481 11.875 26.5625 11.875ZM20 13.75C21.6576 13.75 23.2473 14.4085 24.4194 15.5806C25.5915 16.7527 26.25 18.3424 26.25 20C26.25 21.6576 25.5915 23.2473 24.4194 24.4194C23.2473 25.5915 21.6576 26.25 20 26.25C18.3424 26.25 16.7527 25.5915 15.5806 24.4194C14.4085 23.2473 13.75 21.6576 13.75 20C13.75 18.3424 14.4085 16.7527 15.5806 15.5806C16.7527 14.4085 18.3424 13.75 20 13.75ZM20 16.25C19.0054 16.25 18.0516 16.6451 17.3483 17.3483C16.6451 18.0516 16.25 19.0054 16.25 20C16.25 20.9946 16.6451 21.9484 17.3483 22.6517C18.0516 23.3549 19.0054 23.75 20 23.75C20.9946 23.75 21.9484 23.3549 22.6517 22.6517C23.3549 21.9484 23.75 20.9946 23.75 20C23.75 19.0054 23.3549 18.0516 22.6517 17.3483C21.9484 16.6451 20.9946 16.25 20 16.25Z" fill="#710014"/>
</svg>
