<svg width="650" height="650" viewBox="0 0 650 650" fill="none" xmlns="http://www.w3.org/2000/svg">
<circle cx="325" cy="325" r="325" fill="#F2F1ED"/>
<path d="M569.723 228.94C556.261 210.056 538.447 194.693 517.79 184.15C490.072 170.088 446.245 150.927 413.676 151.514C362.307 152.431 246.732 215.524 186.301 227.526C125.87 239.528 37.0818 284.339 55.5585 375.557C74.0351 466.775 123.058 493.974 216.855 481.973C310.652 469.971 344.041 457.969 420.075 473.144C496.11 488.319 583.5 477.972 592.712 369.157C599.48 289.483 589.509 256.568 569.723 228.94Z" fill="#710014"/>
<path opacity="0.7" d="M569.723 228.94C556.261 210.056 538.447 194.693 517.79 184.15C490.072 170.088 446.245 150.927 413.676 151.514C362.307 152.431 246.732 215.524 186.301 227.526C125.87 239.528 37.0818 284.339 55.5585 375.557C74.0351 466.775 123.058 493.974 216.855 481.973C310.652 469.971 344.041 457.969 420.075 473.144C496.11 488.319 583.5 477.972 592.712 369.157C599.48 289.483 589.509 256.568 569.723 228.94Z" fill="#FDDFC5"/>
<path d="M111.5 232.384L113.53 257.102C113.53 257.102 95.9107 254.214 91.2408 263.562C86.5709 272.909 86.5634 297.342 97.4749 310.329C105.333 319.691 113.733 315.833 117.816 312.946L119.937 339.95C119.937 350.034 139.309 368.609 163.207 368.609C187.106 368.609 206.477 350.034 206.477 339.95L214.907 232.414L111.5 232.384ZM103.709 299.432C96.941 293.717 100.588 268.773 103.709 265.66C106.018 263.344 111.477 265.036 114.139 266.066L116.929 301.635C113.447 302.5 107.958 303.019 103.709 299.432Z" fill="#263238"/>
<path d="M163.207 368.985C139.955 368.985 119.591 350.891 119.591 339.95L117.523 313.63C113.011 316.638 104.882 319.714 97.2192 310.584C86.5408 297.86 86.0445 273.195 90.94 263.404C95.3091 254.673 110.229 256.26 113.154 256.636L111.131 231.985H215.313V232.391L206.883 339.927C206.853 350.891 186.452 368.985 163.207 368.985ZM118.14 312.254L120.306 339.92C120.306 349.38 138.857 368.233 163.207 368.233C187.557 368.233 206.071 349.38 206.071 339.95L214.471 232.76H111.913L113.944 257.576L113.462 257.501C113.289 257.501 96.0762 254.763 91.5717 263.765C86.7664 273.375 87.2552 297.605 97.7606 310.118C105.363 319.142 113.455 315.6 117.598 312.667L118.14 312.254ZM112.004 302.643C108.897 302.727 105.865 301.682 103.468 299.703C100.551 297.244 99.7083 291.649 99.5579 287.393C99.1744 278.188 101.408 267.412 103.446 265.374C105.86 262.953 111.267 264.539 114.275 265.697L114.5 265.78L117.328 301.876L117.019 301.951C115.382 302.388 113.698 302.62 112.004 302.643ZM103.95 299.131C107.883 302.455 112.906 302.192 116.531 301.327L113.786 266.344C111.379 265.442 106.108 263.81 104.01 265.938C102.062 267.848 99.9414 278.572 100.31 287.4C100.551 293.288 101.814 297.357 103.95 299.169V299.131Z" fill="#263238"/>
<path d="M163.207 254.207C191.76 254.207 214.907 244.436 214.907 232.384C214.907 220.331 191.76 210.561 163.207 210.561C134.654 210.561 111.507 220.331 111.507 232.384C111.507 244.436 134.654 254.207 163.207 254.207Z" fill="white"/>
<path d="M163.207 254.59C134.488 254.59 111.124 244.626 111.124 232.384C111.124 220.141 134.488 210.185 163.207 210.185C191.926 210.185 215.283 220.149 215.283 232.384C215.283 244.619 191.896 254.59 163.207 254.59ZM163.207 210.937C134.902 210.937 111.876 220.562 111.876 232.384C111.876 244.205 134.902 253.838 163.207 253.838C191.513 253.838 214.531 244.213 214.531 232.384C214.531 220.555 191.505 210.937 163.207 210.937Z" fill="#263238"/>
<path d="M163.207 251.8C188.612 251.8 209.207 243.107 209.207 232.384C209.207 221.66 188.612 212.967 163.207 212.967C137.802 212.967 117.207 221.66 117.207 232.384C117.207 243.107 137.802 251.8 163.207 251.8Z" fill="white"/>
<path d="M163.207 252.184C137.639 252.184 116.824 243.303 116.824 232.384C116.824 221.465 137.632 212.591 163.207 212.591C188.783 212.591 209.583 221.472 209.583 232.384C209.583 243.295 188.775 252.184 163.207 252.184ZM163.207 213.343C138.045 213.343 117.576 221.886 117.576 232.384C117.576 242.882 138.045 251.432 163.207 251.432C188.369 251.432 208.831 242.889 208.831 232.384C208.831 221.878 188.361 213.343 163.207 213.343Z" fill="#263238"/>
<path d="M163.207 251.8C181.058 251.8 195.528 249.292 195.528 246.198C195.528 243.104 181.058 240.596 163.207 240.596C145.357 240.596 130.886 243.104 130.886 246.198C130.886 249.292 145.357 251.8 163.207 251.8Z" fill="#710014"/>
<path d="M163.207 252.184C150.98 252.184 139.452 250.184 130.736 246.544L129.909 246.198L130.736 245.852C139.452 242.22 150.98 240.22 163.207 240.22C175.435 240.22 186.963 242.22 195.671 245.852L196.506 246.198L195.671 246.544C186.963 250.184 175.427 252.184 163.207 252.184ZM131.879 246.168C140.399 249.544 151.476 251.432 163.207 251.432C174.938 251.432 186.015 249.574 194.528 246.168C186.015 242.791 174.938 240.904 163.207 240.904C151.476 240.904 140.399 242.822 131.879 246.198V246.168Z" fill="#263238"/>
<path d="M346.056 289.844C346.056 289.844 370.646 348.244 376.565 351.335C382.483 354.426 555.984 339.363 555.984 339.363L551.059 333.881L550.825 296.085L557.315 295.8L491.034 208.508L341.266 219.449C341.266 219.449 333.272 224.984 332.159 229.827C331.046 234.67 331.332 241.911 331.332 241.911L346.056 289.844Z" fill="#263238"/>
<path d="M382.363 352.072C379.061 352.072 376.978 351.937 376.399 351.636C370.428 348.522 346.718 292.348 345.718 289.972V289.934L330.956 241.979V241.926C330.956 241.851 330.723 234.549 331.791 229.744C332.858 224.939 340.717 219.366 341.055 219.133L341.138 219.081H341.236L491.192 208.117L491.312 208.282L558.045 296.138L551.202 296.446L551.435 333.738L556.766 339.671L556.014 339.732C549.615 340.288 413.157 352.072 382.363 352.072ZM346.417 289.656C354.907 309.817 372.158 348.545 376.745 350.936C381.332 353.328 495.035 344.206 555.202 338.987L550.69 333.964V333.821L550.457 295.664L556.586 295.394L490.861 208.899L341.401 219.81C340.551 220.419 333.498 225.555 332.528 229.91C331.52 234.422 331.685 241.19 331.7 241.851L346.417 289.656Z" fill="#263238"/>
<path d="M550.825 296.085L380.648 309.787C378.076 311.483 375.91 313.726 374.305 316.356C372.7 318.986 371.694 321.937 371.361 325C370.112 335.626 374.406 346.417 377.602 347.966C379.93 348.962 382.419 349.53 384.949 349.643L551.059 333.851L550.825 296.085Z" fill="#E0E0E0"/>
<path d="M384.987 350.026C382.397 349.918 379.848 349.336 377.467 348.312C374.03 346.642 369.774 335.528 371.015 325C371.363 321.883 372.389 318.88 374.021 316.201C375.652 313.523 377.85 311.233 380.46 309.494L380.618 309.441L551.202 295.672L551.442 334.212L551.096 334.249L384.987 350.026ZM380.731 310.17C378.239 311.854 376.143 314.058 374.585 316.629C373.027 319.201 372.045 322.08 371.707 325.068C370.451 335.806 374.925 346.281 377.723 347.628C380.004 348.601 382.442 349.156 384.919 349.267L550.638 333.535L550.404 296.484L380.731 310.17Z" fill="#263238"/>
<path d="M377.64 164.177L308.99 258.967C308.99 258.967 305.23 262.652 305.425 271.683C305.621 280.715 306.065 295.446 308.749 296.499C311.434 297.552 510.082 312.592 510.082 312.592L555.954 206.658L552.375 205.154L553.608 179.037L556.616 170.584L382.686 162.433L377.64 164.177Z" fill="#710014"/>
<path d="M510.323 312.968H510.052C501.938 312.359 311.329 297.875 308.621 296.838C306.448 296.003 305.38 288.483 305.049 271.698C304.869 262.607 308.569 258.862 308.727 258.704L377.407 163.861L382.626 162.049H382.701L557.112 170.231L553.984 179.112L552.751 204.875L556.435 206.455L556.285 206.808L510.323 312.968ZM377.873 164.493L309.291 259.185C309.215 259.268 305.628 262.945 305.801 271.676C305.914 277.474 306.268 295.123 308.885 296.131C311.464 296.965 441.289 306.99 509.842 312.216L555.45 206.853L551.976 205.349L553.255 178.901L556.067 170.915L382.738 162.809L377.873 164.493Z" fill="#263238"/>
<path d="M315.164 261.667C315.164 261.667 308.952 259.741 307.185 265.712C305.418 271.683 309.764 293.318 309.764 293.318C309.764 293.318 313.472 294.867 315.179 294.92C316.886 294.973 508.044 307.591 508.044 307.591L552.36 205.124L553.608 179.037L511.21 270.856L315.164 261.667Z" fill="white"/>
<path d="M508.285 307.982H508.022C506.112 307.854 316.841 295.356 315.164 295.311C313.487 295.266 309.772 293.747 309.614 293.687L309.433 293.604L309.396 293.408C309.215 292.521 305.057 271.6 306.832 265.622C307.028 264.811 307.389 264.048 307.892 263.382C308.396 262.716 309.03 262.16 309.757 261.749C311.47 260.951 313.412 260.794 315.231 261.306L510.977 270.488L554.074 177.127L552.705 205.267L508.285 307.982ZM310.088 293.048C310.84 293.356 313.78 294.499 315.186 294.552C316.863 294.597 496.854 306.486 507.804 307.208L551.991 205.033L553.142 180.969L511.451 271.247H511.195L315.104 262.035H315.051C313.412 261.57 311.662 261.7 310.11 262.404C309.474 262.771 308.918 263.264 308.478 263.852C308.037 264.44 307.72 265.111 307.546 265.825C305.922 271.33 309.667 290.867 310.088 293.048Z" fill="#263238"/>
<path d="M506.826 270.653L315.164 261.666C315.164 261.666 308.952 259.741 307.185 265.712C305.418 271.683 309.764 293.318 309.764 293.318C309.764 293.318 313.472 294.867 315.179 294.92C316.886 294.973 508.044 307.591 508.044 307.591L507.781 271.495L506.826 270.653Z" fill="#E0E0E0"/>
<path d="M508.428 307.99H508.022C506.112 307.862 316.841 295.364 315.164 295.319C313.487 295.273 309.772 293.754 309.614 293.694L309.433 293.612L309.396 293.416C309.215 292.529 305.057 271.608 306.832 265.63C307.028 264.818 307.389 264.056 307.892 263.39C308.396 262.724 309.03 262.168 309.757 261.757C311.47 260.959 313.412 260.801 315.231 261.313L506.991 270.337L508.172 271.345V271.518L508.428 307.99ZM310.088 293.048C310.84 293.356 313.78 294.499 315.186 294.552C316.856 294.597 495.418 306.388 507.698 307.193L507.435 271.653L506.683 271.029L315.104 262.035H315.051C313.412 261.57 311.662 261.7 310.11 262.404C309.474 262.771 308.918 263.264 308.478 263.852C308.037 264.44 307.72 265.111 307.546 265.825C305.922 271.33 309.667 290.867 310.088 293.048Z" fill="#263238"/>
<path d="M340.912 455.848C340.912 455.848 347.936 465.977 355.276 465.819C404.201 464.752 488.575 488.184 498.366 488.184C508.157 488.184 515.436 487.319 515.436 485.236C515.436 483.153 481.002 346.868 481.002 346.868L474.174 344.792L497.622 477.791C497.622 477.791 468.527 473.64 409.75 463.842C350.974 454.043 353.35 445.794 346.252 447.252C339.153 448.711 340.912 455.848 340.912 455.848Z" fill="#710014"/>
<path d="M498.366 488.545C495.403 488.545 485.778 486.447 472.46 483.544C441.447 476.776 389.522 465.436 355.283 466.248H355.08C347.695 466.248 340.875 456.532 340.589 456.119L340.529 455.991C340.529 455.856 339.717 452.622 341.386 449.975C341.931 449.171 342.637 448.488 343.459 447.971C344.281 447.453 345.201 447.111 346.161 446.967C348.718 446.44 350.117 447.102 353.17 448.561C358.998 451.336 371.12 457.104 409.796 463.556C463.729 472.58 492.997 476.829 497.148 477.43L473.678 344.326L481.296 346.65L481.348 346.853C482.755 352.418 515.797 483.191 515.797 485.289C515.797 487.387 509.947 488.545 498.366 488.545ZM358.644 465.428C392.951 465.428 442.575 476.25 472.618 482.807C485.89 485.702 495.478 487.793 498.366 487.793C510.676 487.793 515.06 486.469 515.06 485.221C514.955 483.198 492.561 394.184 480.664 347.176L474.648 345.342L498.088 478.25L497.569 478.175C497.283 478.13 467.797 473.904 409.69 464.218C370.902 457.758 358.72 451.953 352.862 449.178C349.854 447.756 348.635 447.162 346.334 447.674C345.469 447.802 344.641 448.108 343.9 448.572C343.16 449.037 342.524 449.65 342.033 450.373C341.147 452.021 340.88 453.931 341.281 455.758C341.867 456.577 348.538 465.654 355.291 465.534C356.373 465.436 357.501 465.428 358.644 465.428Z" fill="#263238"/>
<path d="M505.345 484.627C495.253 484.033 475.618 478.927 427.137 468.978C378.655 459.029 342.356 453.005 342.356 453.005L341.333 456.502C343.01 458.706 349.011 465.977 355.238 465.842C404.201 464.752 488.575 488.184 498.366 488.184C508.157 488.184 515.437 487.319 515.437 485.236C515.437 485.056 510.376 484.928 505.345 484.627Z" fill="#263238"/>
<path d="M498.366 488.545C495.403 488.545 485.778 486.447 472.46 483.544C441.447 476.776 389.537 465.443 355.283 466.248C348.861 466.413 342.792 459.021 341.07 456.758L340.958 456.607L342.123 452.614L342.454 452.667C342.815 452.727 379.362 458.811 427.25 468.639C444.606 472.204 458.194 475.129 469.106 477.483C488.327 481.626 498.915 483.905 505.367 484.251C507.285 484.364 509.217 484.454 510.864 484.529C515.813 484.762 515.813 484.762 515.813 485.221C515.813 487.432 509.947 488.545 498.366 488.545ZM358.645 465.428C392.951 465.428 442.575 476.25 472.618 482.807C485.89 485.702 495.478 487.793 498.366 487.793C509.729 487.793 514.339 486.665 514.978 485.537C514.286 485.462 512.594 485.386 510.827 485.304C509.18 485.228 507.247 485.138 505.322 485.025C498.817 484.642 488.207 482.356 468.948 478.212C458.036 475.859 444.448 472.948 427.099 469.369C381.641 460.036 346.417 454.088 342.657 453.456L341.785 456.464C343.574 458.788 349.252 465.488 355.103 465.488H355.268C356.374 465.436 357.502 465.428 358.645 465.428Z" fill="#263238"/>
<path d="M182.376 341.544C182.376 341.544 178.811 342.732 178.225 345.402C177.638 348.071 143.49 484.935 146.754 485.274C150.017 485.612 329.926 486.778 332.001 484.68C334.077 482.582 340.912 455.848 340.912 455.848L325.752 476.355L169.599 472.497L188.302 344.838L182.376 341.544Z" fill="#710014"/>
<path d="M259.508 486.289C207.929 486.289 147.693 485.725 146.708 485.635C146.635 485.628 146.563 485.605 146.499 485.567C146.436 485.53 146.381 485.478 146.34 485.417C145.798 484.665 144.144 482.333 176.277 351.764C177.209 348.004 177.781 345.672 177.849 345.349C178.48 342.507 182.097 341.266 182.248 341.221L182.406 341.168L188.715 344.635L170.043 472.129L325.587 475.979L341.747 454.103L341.273 455.968C340.574 458.713 334.362 482.845 332.249 484.935C331.227 485.981 297.74 486.289 259.508 486.289ZM146.934 484.898C152.897 485.063 327.85 486.349 331.783 484.371C333.287 482.867 337.882 466.038 340.055 457.653L325.948 476.739H325.752L169.171 472.873L169.231 472.452L187.895 345.048L182.338 341.995C181.676 342.251 179.052 343.394 178.578 345.522C178.51 345.853 177.946 348.147 177.006 351.952C149.822 462.443 146.415 482.92 146.934 484.898Z" fill="#263238"/>
<path d="M332.001 484.672C334.084 482.589 340.912 455.871 340.912 455.871L339.905 457.224L330.52 481.416L148.536 483.762L146.723 485.266C150.017 485.56 329.926 486.748 332.001 484.672Z" fill="#263238"/>
<path d="M259.508 486.289C207.929 486.289 147.693 485.725 146.708 485.635L145.806 485.552L148.423 483.371H148.558L330.264 481.032L339.604 457.006L341.747 454.103L341.273 455.968C340.574 458.713 334.362 482.845 332.249 484.935C331.227 485.981 297.747 486.289 259.508 486.289ZM147.761 484.913C162.049 485.131 327.406 486.296 331.76 484.379C333.264 482.747 337.656 466.85 339.89 458.314L330.775 481.777H330.527L148.709 484.123L147.761 484.913Z" fill="#263238"/>
<path d="M186.534 339.792L182.376 341.574L153.582 480.807L330.52 481.401L342.394 450.825L176.142 458.841L191.58 339.499L186.534 339.792Z" fill="white"/>
<path d="M330.775 481.777H330.52L153.115 481.183L182.052 341.311L186.512 339.423L192.009 339.1L191.956 339.551L176.57 458.442L342.958 450.426L330.775 481.777ZM154.055 480.438L330.279 481.025L341.852 451.231L175.713 459.239L175.773 458.796L191.144 339.897L186.632 340.168L182.714 341.845L154.055 480.438Z" fill="#263238"/>
<path d="M165.456 463.293L157.387 476.716L153.582 480.807L330.52 481.401L342.394 450.825L176.142 458.841L165.456 463.293Z" fill="#E0E0E0"/>
<path d="M330.775 481.777H330.52L152.717 481.183L157.086 476.483L165.2 462.992L176.127 458.48L342.958 450.441L330.775 481.777ZM154.439 480.438L330.264 481.025L341.837 451.231L176.224 459.217L165.696 463.594L157.65 476.972L154.439 480.438Z" fill="#263238"/>
<path d="M342.394 450.825V423.512L199.597 439.244L188.911 457.954L342.394 450.825Z" fill="#B8B8B8"/>
<path d="M188.241 458.36L199.363 438.898H199.559L342.77 423.106V451.186H342.409L188.241 458.36ZM199.83 439.597L189.572 457.54L342.018 450.464V423.933L199.83 439.597Z" fill="#263238"/>
<path d="M193.061 324.654L188.91 325.248L165.456 463.293C165.456 463.293 184.752 461.789 210.876 455.577C237.001 449.366 290.145 439.838 307.96 442.515C325.774 445.192 340.912 455.848 340.912 455.848C340.912 455.848 363.141 460.262 388.078 465.308C413.014 470.354 450.125 478.092 474.768 482.236C499.411 486.379 505.345 484.604 505.345 484.604L474.768 342.401L471.798 341.544L488.124 470.384C488.124 470.384 385.16 441.921 371.489 441.921C357.817 441.921 350.433 427.37 323.097 422.03C295.762 416.691 265.193 427.37 239.377 431.806C223.191 434.665 207.221 438.635 191.58 443.688L198.408 324.639L193.061 324.654Z" fill="#E0E0E0"/>
<path d="M500.291 485.394C495.854 485.394 487.996 484.868 474.723 482.627C453.968 479.16 424.429 473.144 400.696 468.279L388.002 465.699C363.352 460.713 341.063 456.284 340.837 456.239L340.694 456.179C340.544 456.074 325.414 445.516 307.899 442.884C289.806 440.169 234.955 450.216 210.967 455.938C196.007 459.581 180.809 462.164 165.486 463.669L165.004 463.706L165.087 463.233L188.587 324.91L193.099 324.278H198.844L192.024 443.169C207.52 438.208 223.333 434.294 239.355 431.453C245.867 430.333 252.582 428.836 259.696 427.249C280.85 422.527 302.718 417.654 323.21 421.662C338.002 424.557 347.018 430.16 354.268 434.657C360.457 438.507 365.345 441.545 371.526 441.545C384.709 441.545 478.776 467.399 487.718 469.865L471.347 341.01L475.107 342.131L475.152 342.349L505.781 484.89L505.45 484.988C505.337 485.026 504.013 485.394 500.291 485.394ZM341.063 455.517C342.521 455.81 364.224 460.119 388.153 464.962L400.847 467.542C424.572 472.377 454.103 478.385 474.828 481.882C495.937 485.447 503.322 484.62 504.908 484.341L474.445 342.725L472.242 342.063L488.567 470.888L488.026 470.738C486.996 470.452 384.942 442.289 371.466 442.289C365.066 442.289 360.096 439.199 353.809 435.288C346.62 430.821 337.664 425.257 322.977 422.392C302.673 418.413 280.865 423.271 259.809 427.971C252.688 429.558 245.965 431.062 239.43 432.19C223.264 435.051 207.312 439.014 191.685 444.049L191.159 444.23L198.01 325H193.092L189.234 325.549L165.922 462.849C181.041 461.318 196.039 458.755 210.809 455.179C235.625 449.26 289.596 439.387 308.027 442.109C325.113 444.703 339.942 454.743 341.063 455.517Z" fill="#263238"/>
<path d="M176.141 458.841L165.456 463.293L188.91 325.248L198.408 324.654L176.141 458.841Z" fill="white"/>
<path d="M164.967 463.902L188.587 324.887L198.859 324.248L176.48 459.112L164.967 463.902ZM189.226 325.602L165.914 462.684L175.781 458.57L197.934 325.06L189.226 325.602Z" fill="#263238"/>
<path d="M338.829 306.245C338.829 306.245 341.506 301.492 365.849 307.749C390.191 314.006 415.684 329.677 436.469 332.64C457.254 335.603 470.888 338.536 470.888 338.536L499.096 481.634C499.096 481.634 453.096 475.4 409.75 463.849C366.405 452.298 348.034 444.568 342.394 450.825L338.829 306.245Z" fill="white"/>
<path d="M499.577 482.108L499.058 482.033C498.599 481.972 452.524 475.663 409.653 464.21C399.335 461.458 390.537 458.946 382.784 456.743C358.84 449.922 346.808 446.501 342.672 451.08L342.04 451.772L338.453 306.155L338.506 306.065C338.619 305.854 341.597 301.131 365.939 307.366C377.054 310.216 388.424 315.036 399.418 319.691C412.706 325.323 425.249 330.647 436.522 332.257C457.074 335.19 470.85 338.167 470.986 338.198L471.226 338.25L499.577 482.108ZM349.064 448.215C355.606 448.215 366.262 451.223 383.017 456.021C390.77 458.224 399.561 460.728 409.878 463.488C450.208 474.264 493.448 480.483 498.637 481.213L470.587 338.882C468.662 338.476 455.457 335.723 436.416 333.001C425.046 331.377 412.458 326.038 399.125 320.39C388.161 315.735 376.813 310.93 365.751 308.095C343.943 302.5 339.717 305.839 339.213 306.373L342.747 450.005C344.199 448.764 346.244 448.215 349.064 448.215Z" fill="#263238"/>
<path d="M463.248 356.584C415.33 346.056 412.45 345.74 412.345 345.733V344.981C412.405 344.981 414.443 345.101 463.383 355.855L463.248 356.584Z" fill="#263238"/>
<path d="M464.3 362.758C458.194 361.412 452.569 360.163 447.523 359.035C441.139 357.614 435.627 356.388 431.235 355.448C414.646 351.891 412.909 351.741 412.841 351.733L412.879 350.981C412.939 350.981 414.495 351.094 431.393 354.741C435.785 355.681 441.297 356.915 447.681 358.336L464.466 362.051L464.3 362.758Z" fill="#263238"/>
<path d="M465.353 368.939C458.991 367.541 452.712 366.112 447.162 364.848C441.244 363.502 436.138 362.344 431.942 361.442C415.654 357.953 413.42 357.757 413.33 357.75L413.382 356.998C413.465 356.998 415.638 357.178 432.1 360.705C436.296 361.607 441.41 362.773 447.335 364.119C452.878 365.375 459.157 366.804 465.519 368.202L465.353 368.939Z" fill="#263238"/>
<path d="M466.376 375.121C460.36 373.805 454.231 372.376 448.283 370.992C442.462 369.646 436.958 368.368 432.626 367.435C416.706 364.021 413.826 363.773 413.826 363.765L413.879 363.013C413.992 363.013 416.774 363.254 432.822 366.698C437.161 367.631 442.665 368.902 448.493 370.255C454.442 371.631 460.593 373.06 466.541 374.376L466.376 375.121Z" fill="#263238"/>
<path d="M467.467 381.302C461.992 380.099 455.826 378.64 449.87 377.234C443.741 375.79 437.95 374.414 433.363 373.474C417.842 370.143 414.345 369.827 414.308 369.827L414.368 369.075C414.503 369.075 417.902 369.383 433.521 372.737C438.116 373.722 443.906 375.091 450.065 376.542C456.021 377.948 462.18 379.4 467.647 380.603L467.467 381.302Z" fill="#263238"/>
<path d="M468.519 387.484C463.601 386.401 457.518 384.942 451.629 383.528C445.403 382.024 438.958 380.475 434.078 379.43C418.955 376.181 414.842 375.805 414.796 375.805L414.864 375.053C415.03 375.053 419.038 375.429 434.236 378.693C439.124 379.745 445.568 381.295 451.81 382.791C457.69 384.205 463.767 385.671 468.677 386.747L468.519 387.484Z" fill="#263238"/>
<path d="M469.572 393.665C465.218 392.71 459.525 391.319 453.494 389.845C446.862 388.221 439.958 386.544 434.785 385.423C420.083 382.265 415.338 381.829 415.293 381.821L415.353 381.069C415.398 381.069 420.173 381.505 434.942 384.679C440.161 385.807 447.035 387.484 453.675 389.108C459.691 390.574 465.383 391.966 469.73 392.921L469.572 393.665Z" fill="#263238"/>
<path d="M470.625 399.846C466.865 399.012 461.308 397.643 455.465 396.192C448.388 394.432 441.071 392.62 435.499 391.417C421.211 388.348 415.834 387.845 415.781 387.845L415.849 387.093C415.902 387.093 421.309 387.604 435.657 390.68C441.237 391.883 448.561 393.688 455.645 395.462C461.488 396.914 467 398.282 470.783 399.109L470.625 399.846Z" fill="#263238"/>
<path d="M471.678 406.028C468.429 405.314 463.142 403.983 457.555 402.576C450.351 400.756 442.184 398.696 436.206 397.41C422.339 394.402 416.33 393.868 416.27 393.861L416.338 393.109C416.398 393.109 422.444 393.688 436.364 396.681C442.38 397.967 450.524 400.027 457.736 401.847C463.323 403.253 468.602 404.584 471.843 405.299L471.678 406.028Z" fill="#263238"/>
<path d="M472.73 412.232C470.008 411.638 465.21 410.42 459.721 409.006C452.035 407.036 443.327 404.81 436.92 403.426C423.474 400.538 416.827 399.907 416.767 399.899L416.834 399.147C416.902 399.147 423.602 399.786 437.078 402.689C443.5 404.073 452.216 406.299 459.909 408.269C465.421 409.675 470.181 410.901 472.896 411.495L472.73 412.232Z" fill="#263238"/>
<path d="M473.783 418.398C471.572 417.909 467.143 416.759 462.014 415.428C454.216 413.405 444.515 410.916 437.627 409.412C424.61 406.607 417.323 405.908 417.255 405.908L417.323 405.156C424.206 405.965 431.041 407.138 437.8 408.667C444.703 410.171 454.412 412.676 462.217 414.683C467.339 416.014 471.76 417.165 473.964 417.646L473.783 418.398Z" fill="#263238"/>
<path d="M474.844 424.58C473.106 424.196 469.264 423.181 464.398 421.903C456.532 419.835 445.756 417 438.341 415.398C431.542 413.874 424.667 412.712 417.744 411.916L417.819 411.164C424.769 411.966 431.672 413.133 438.499 414.661C445.929 416.263 456.713 419.105 464.594 421.181C469.444 422.452 473.279 423.437 475.001 423.843L474.844 424.58Z" fill="#263238"/>
<path d="M475.896 430.761C474.61 430.476 471.226 429.573 466.948 428.43C458.555 426.174 447.065 423.121 439.048 421.391C432.178 419.873 425.232 418.719 418.24 417.932L418.308 417.18C425.33 417.967 432.306 419.124 439.206 420.647C447.238 422.384 458.758 425.452 467.143 427.701C471.414 428.836 474.783 429.739 476.054 430.017L475.896 430.761Z" fill="#263238"/>
<path d="M476.949 436.943C476.077 436.747 473.392 436.025 469.677 435.017C461.751 432.867 448.471 429.272 439.763 427.385C432.808 425.877 425.78 424.73 418.707 423.948L418.782 423.196C425.876 423.975 432.925 425.127 439.898 426.648C448.629 428.528 461.917 432.13 469.85 434.281C473.558 435.288 476.235 436.01 477.085 436.198L476.949 436.943Z" fill="#263238"/>
<path d="M478.002 443.124C477.498 443.011 475.558 442.477 472.625 441.673C464.729 439.492 450.065 435.446 440.47 433.401C433.45 431.897 426.356 430.76 419.218 429.994L419.293 429.242C426.459 430.013 433.581 431.158 440.627 432.671C450.208 434.739 464.917 438.793 472.821 440.943C475.641 441.695 477.678 442.282 478.16 442.387L478.002 443.124Z" fill="#263238"/>
<path d="M479.055 449.306C478.859 449.26 477.829 448.975 475.971 448.456C468.767 446.433 451.907 441.688 441.184 439.379C434.103 437.882 426.949 436.75 419.752 435.988L419.82 435.236C427.059 436.005 434.255 437.142 441.379 438.642C452.126 440.966 469.008 445.703 476.212 447.726C477.874 448.193 479.077 448.531 479.258 448.569L479.055 449.306Z" fill="#263238"/>
<path d="M480.085 455.48C479.844 455.412 455.585 448.336 441.891 445.373C431.408 443.117 420.316 442.019 420.203 442.004L420.278 441.252C427.587 442.012 434.853 443.139 442.049 444.628C455.765 447.636 480.055 454.682 480.295 454.75L480.085 455.48Z" fill="#263238"/>
<path d="M404.712 343.619C395.38 339.326 388.815 335.581 383.543 332.573C378.061 329.437 373.722 326.97 368.939 325.421C362.162 323.377 355.163 322.16 348.094 321.796V321.044C355.235 321.409 362.305 322.638 369.15 324.707C374.015 326.278 378.377 328.767 383.904 331.918C389.168 334.926 395.711 338.686 405.013 342.935L404.712 343.619Z" fill="#263238"/>
<path d="M405.216 349.726C396.846 345.876 390.68 342.401 385.724 339.611C379.941 336.355 375.369 333.783 370.007 332.046C359.615 328.67 349.072 328.113 348.259 328.241L348.064 327.489C348.56 327.339 359.344 327.775 370.24 331.309C375.677 333.069 380.272 335.656 386.093 338.935C391.289 341.86 397.185 345.184 405.532 349.026L405.216 349.726Z" fill="#263238"/>
<path d="M405.69 355.832C398.23 352.395 392.718 349.335 387.852 346.628C381.799 343.259 377.016 340.612 371.053 338.656C359.382 334.851 348.966 334.49 348.327 334.678L348.102 333.926C349.004 333.64 359.788 334.159 371.286 337.912C377.302 339.882 382.13 342.552 388.221 345.943C393.071 348.635 398.568 351.696 406.006 355.118L405.69 355.832Z" fill="#263238"/>
<path d="M406.171 361.946C399.568 358.938 394.47 356.11 389.973 353.674C383.957 350.35 378.693 347.485 372.098 345.319C359.795 341.288 349.47 340.807 348.365 341.16L348.139 340.446C349.643 339.965 360.284 340.657 372.331 344.605C379.001 346.785 384.25 349.673 390.334 353.012C394.846 355.478 399.907 358.276 406.479 361.284L406.171 361.946Z" fill="#263238"/>
<path d="M406.645 368.059C400.862 365.397 396.192 362.863 392.071 360.63C385.814 357.231 380.415 354.305 373.135 351.906C359.96 347.575 349.823 347.131 348.402 347.582L348.177 346.868C350.004 346.281 360.788 347.056 373.376 351.192C380.716 353.606 386.16 356.554 392.432 359.968C396.538 362.224 401.2 364.721 406.953 367.375L406.645 368.059Z" fill="#263238"/>
<path d="M407.118 374.166C402.11 371.865 398.057 369.691 394.146 367.586C387.717 364.142 382.159 361.164 374.181 358.562C360.246 353.959 350.26 353.486 348.44 354.05L348.214 353.335C350.508 352.583 361.231 353.478 374.414 357.847C382.46 360.502 388.311 363.638 394.5 366.954C398.403 369.052 402.448 371.218 407.434 373.511L407.118 374.166Z" fill="#263238"/>
<path d="M407.592 380.272C403.313 378.309 399.689 376.384 396.192 374.527C389.898 371.195 383.957 368.045 375.226 365.149C360.886 360.404 350.726 359.765 348.478 360.487L348.252 359.735C350.944 358.878 361.457 359.735 375.459 364.405C384.25 367.323 390.221 370.481 396.515 373.835C400.012 375.685 403.629 377.595 407.886 379.558L407.592 380.272Z" fill="#263238"/>
<path d="M408.066 386.386C404.471 384.731 401.298 383.054 398.192 381.438C391.815 378.091 385.784 374.933 376.264 371.774C360.961 366.683 351.125 366.104 348.515 366.932L348.29 366.217C351.666 365.142 362.705 366.473 376.505 371.06C386.085 374.241 392.417 377.565 398.546 380.776C401.621 382.385 404.802 384.055 408.382 385.701L408.066 386.386Z" fill="#263238"/>
<path d="M408.54 392.492C405.577 391.131 402.945 389.762 400.155 388.318C392.844 384.349 385.2 381.028 377.309 378.392C362.375 373.414 351.929 372.308 348.553 373.384L348.327 372.669C351.937 371.519 362.367 372.624 377.55 377.678C385.476 380.327 393.155 383.664 400.501 387.649C403.283 389.093 405.908 390.454 408.856 391.808L408.54 392.492Z" fill="#263238"/>
<path d="M409.013 398.598C406.637 397.508 404.419 396.342 402.065 395.161C394.475 391.116 386.556 387.722 378.392 385.017C361.81 379.475 351.997 378.768 348.628 379.836L348.402 379.121C352.042 377.963 361.893 378.715 378.633 384.303C386.845 387.018 394.813 390.427 402.448 394.492C404.787 395.695 407.005 396.831 409.367 397.921L409.013 398.598Z" fill="#263238"/>
<path d="M409.487 404.712C407.645 403.862 405.832 402.937 403.907 401.967C396.035 397.858 387.838 394.402 379.4 391.635C358.471 384.633 350.906 385.558 348.628 386.288L348.402 385.536C353.365 383.964 364.751 385.912 379.633 390.89C388.109 393.664 396.342 397.135 404.246 401.268C406.163 402.238 407.968 403.155 409.803 403.997L409.487 404.712Z" fill="#263238"/>
<path d="M409.976 410.818C408.607 410.186 407.186 409.472 405.682 408.72C397.564 404.565 389.127 401.065 380.452 398.252C360.69 391.627 352.267 391.597 348.68 392.74L348.455 391.988C353.719 390.304 364.901 392.214 380.693 397.515C389.401 400.347 397.87 403.868 406.02 408.043C407.524 408.795 408.938 409.502 410.292 410.126L409.976 410.818Z" fill="#263238"/>
<path d="M410.435 416.932C409.487 416.488 408.487 415.992 407.329 415.428C402.727 413.172 395.771 409.69 381.483 404.9C365.134 399.403 354.11 397.493 348.703 399.207L348.478 398.493C354.11 396.703 364.984 398.561 381.723 404.186C396.057 409.006 403.043 412.458 407.66 414.766C408.818 415.338 409.811 415.834 410.751 416.27L410.435 416.932Z" fill="#263238"/>
<path d="M410.908 423.038C410.314 422.76 409.645 422.436 408.863 422.053C404.795 420.053 397.982 416.706 382.543 411.525C365.247 405.704 354.501 403.84 348.756 405.667L348.53 404.915C354.433 403.035 365.315 404.915 382.784 410.781C398.282 415.999 405.126 419.361 409.209 421.369C409.961 421.752 410.653 422.076 411.239 422.346L410.908 423.038Z" fill="#263238"/>
<path d="M411.382 429.144L410.239 428.595C407.231 427.152 400.305 423.76 383.573 418.12C365.285 411.954 354.877 410.149 348.786 412.104L348.553 411.39C354.817 409.397 365.36 411.202 383.814 417.406C400.591 423.068 407.585 426.467 410.57 427.934C411.021 428.159 411.39 428.34 411.698 428.475L411.382 429.144Z" fill="#263238"/>
<path d="M411.856 435.258L411.42 435.048C405.69 432.28 396.673 428.813 384.611 424.738C365.563 418.308 355.193 416.511 348.823 418.541L348.59 417.789C355.223 415.684 365.39 417.421 384.852 424.001C396.944 428.084 405.991 431.558 411.743 434.341L412.172 434.544L411.856 435.258Z" fill="#263238"/>
<path d="M412.322 441.357C412.262 441.357 406.021 438.251 385.656 431.363C365.578 424.595 355.576 422.843 348.861 424.986L348.628 424.272C355.546 422.068 365.646 423.798 385.897 430.649C406.329 437.559 412.601 440.658 412.661 440.688L412.322 441.357Z" fill="#263238"/>
<path d="M338.829 306.245L342.394 450.825C342.394 450.825 331.708 428.859 303.207 429.769C274.706 430.679 211.771 452.629 201.687 454.705C191.603 456.781 176.142 458.856 176.142 458.856L193.062 320.811C193.062 320.811 267.848 307.14 283.64 302.387C299.432 297.635 313.036 292.611 323.128 294.965C333.219 297.319 338.829 299.124 338.829 306.245Z" fill="white"/>
<path d="M175.713 459.277L175.773 458.796L192.723 320.488L192.994 320.435C193.746 320.3 267.968 306.734 283.505 302.041C285.54 301.425 287.545 300.811 289.521 300.199C302.823 296.078 314.337 292.521 323.195 294.612C333.129 296.95 339.22 298.763 339.22 306.253L342.83 452.554L342.078 451.005C341.973 450.787 331.151 429.257 303.237 430.137C282.301 430.791 242.799 442.831 219.194 450.02C210.636 452.629 204.447 454.532 201.77 455.066C191.783 457.126 176.367 459.209 176.202 459.232L175.713 459.277ZM193.4 321.112L176.578 458.405C179.27 458.029 192.633 456.149 201.597 454.314C204.244 453.772 210.734 451.795 218.953 449.291C242.596 442.086 282.121 430.032 303.177 429.37C327.489 428.618 339.062 444.568 341.965 449.336L338.438 306.245C338.438 299.304 332.858 297.65 323 295.334C314.306 293.288 302.914 296.838 289.716 300.906C287.746 301.507 285.746 302.132 283.7 302.748C268.6 307.305 198.378 320.202 193.4 321.112Z" fill="#263238"/>
<path d="M266.061 324.958L210.383 337.457L210.549 338.194L266.226 325.695L266.061 324.958Z" fill="#263238"/>
<path d="M208.823 343.988L208.658 343.236C220.833 340.491 244.002 335.25 244.656 335.047C245.408 334.806 263.802 330.715 264.584 330.535L264.742 331.287C258.132 332.791 245.468 335.596 244.882 335.799C244.055 336.047 210.26 343.665 208.823 343.988Z" fill="#263238"/>
<path d="M208.214 350.169L208.049 349.417C208.395 349.335 242.739 341.506 244.34 341.003C245.942 340.499 263.682 336.566 264.441 336.393L264.607 337.145C264.419 337.145 246.047 341.266 244.566 341.732C242.934 342.296 209.636 349.816 208.214 350.169Z" fill="#263238"/>
<path d="M207.613 356.351L207.44 355.599C207.778 355.524 241.611 347.718 244.032 346.958C246.288 346.251 263.584 342.409 264.299 342.251L264.464 343.003C264.284 343.048 246.476 346.996 244.258 347.695C241.814 348.462 209.004 356.035 207.613 356.351Z" fill="#263238"/>
<path d="M207.004 362.54L206.831 361.788C207.169 361.713 240.49 353.929 243.716 352.914C246.724 351.974 263.449 348.267 264.163 348.109L264.321 348.861C264.148 348.861 246.905 352.719 243.942 353.651C240.686 354.674 208.372 362.216 207.004 362.54Z" fill="#263238"/>
<path d="M206.395 368.714L206.222 367.962C206.553 367.887 239.37 360.133 243.408 358.863C247.168 357.689 263.336 354.11 264.02 353.959L264.186 354.711C264.013 354.749 247.341 358.471 243.634 359.599C239.565 360.878 207.748 368.398 206.395 368.714Z" fill="#263238"/>
<path d="M205.786 374.903L205.613 374.151C205.936 374.076 238.242 366.353 243.092 364.826C247.604 363.412 263.72 359.855 263.878 359.818L264.043 360.57C263.878 360.607 247.77 364.157 243.318 365.555C238.445 367.112 206.109 374.82 205.786 374.903Z" fill="#263238"/>
<path d="M205.176 381.084L205.003 380.332C205.319 380.257 237.121 372.556 242.776 370.782C248.04 369.135 263.584 365.706 263.742 365.676L263.9 366.428C263.742 366.465 248.206 369.887 243.002 371.519C237.324 373.301 205.5 381.001 205.176 381.084Z" fill="#263238"/>
<path d="M204.567 387.265L204.394 386.513C204.703 386.431 235.978 378.76 242.468 376.737C248.439 374.857 263.449 371.564 263.599 371.526L263.765 372.278C263.607 372.278 248.634 375.602 242.709 377.467C236.196 379.505 204.883 387.19 204.567 387.265Z" fill="#263238"/>
<path d="M203.966 393.432L203.778 392.68C204.093 392.605 234.873 384.957 242.13 382.663C248.852 380.55 263.291 377.399 263.434 377.362L263.599 378.114C263.456 378.114 249.048 381.295 242.355 383.378C235.076 385.717 204.274 393.372 203.966 393.432Z" fill="#263238"/>
<path d="M203.356 399.628L203.168 398.876C203.477 398.801 233.745 391.176 241.844 388.634C249.304 386.288 263.178 383.257 263.321 383.227L263.479 383.979C263.343 383.979 249.499 387.032 242.062 389.364C233.955 391.928 203.657 399.553 203.356 399.628Z" fill="#263238"/>
<path d="M202.747 405.81L202.559 405.058C202.86 404.983 232.639 397.388 241.528 394.59C249.74 392.011 263.043 389.116 263.178 389.085L263.336 389.837C263.208 389.837 249.928 392.748 241.754 395.32C232.827 398.132 203.048 405.735 202.747 405.81Z" fill="#263238"/>
<path d="M202.138 411.991L201.95 411.239C202.243 411.164 231.504 403.599 241.212 400.546C250.168 397.726 262.915 394.966 263.02 394.936L263.178 395.688C263.05 395.688 250.341 398.47 241.415 401.275C231.707 404.344 202.424 411.916 202.138 411.991Z" fill="#263238"/>
<path d="M201.529 418.173L201.341 417.421C201.627 417.345 230.376 409.803 240.904 406.502C250.605 403.449 262.779 400.817 262.9 400.794L263.058 401.546C262.937 401.546 250.793 404.193 241.129 407.231C230.586 410.547 201.822 418.097 201.529 418.173Z" fill="#263238"/>
<path d="M200.92 424.354L200.724 423.602C201.01 423.519 229.248 416.007 240.58 412.442C251.026 409.164 262.637 406.667 262.749 406.637L262.907 407.389C262.794 407.389 251.221 409.901 240.806 413.179C229.496 416.744 201.206 424.264 200.92 424.354Z" fill="#263238"/>
<path d="M200.318 430.536L200.123 429.784C200.401 429.708 228.127 422.218 240.272 418.398C251.469 414.879 262.509 412.518 262.622 412.495L262.772 413.247C262.667 413.247 251.657 415.623 240.498 419.128C228.338 422.97 200.597 430.46 200.318 430.536Z" fill="#263238"/>
<path d="M199.709 436.717L199.514 435.965C199.784 435.89 227.007 428.445 239.964 424.354C251.898 420.594 262.373 418.338 262.479 418.338L262.637 419.09C262.531 419.09 252.109 421.346 240.189 425.106C227.24 429.174 199.98 436.642 199.709 436.717Z" fill="#263238"/>
<path d="M272.789 323.188L272.555 322.436C274.676 321.759 324.579 305.967 332.151 314.292L331.595 314.803C324.346 306.862 273.3 323.022 272.789 323.188Z" fill="#263238"/>
<path d="M272.623 329.181L272.39 328.467C272.571 328.406 290.145 322.766 305.779 319.826C312.412 318.593 328.264 316.186 332.174 320.488L331.618 320.999C329.083 318.202 319.473 318.044 305.914 320.563C290.333 323.496 272.796 329.121 272.623 329.181Z" fill="#263238"/>
<path d="M272.458 335.174L272.232 334.46C272.405 334.4 290.28 328.602 305.719 325.744C319.097 323.323 329.497 323.676 332.197 326.647L331.64 327.158C329.151 324.413 318.781 324.15 305.854 326.489C290.483 329.331 272.638 335.114 272.458 335.174Z" fill="#263238"/>
<path d="M272.3 341.168L272.059 340.453C272.247 340.393 290.438 334.4 305.651 331.67C318.367 329.414 329.542 329.865 332.219 332.806L331.663 333.317C329.189 330.595 318.066 330.204 305.786 332.407C290.626 335.129 272.48 341.108 272.3 341.168Z" fill="#263238"/>
<path d="M272.134 347.161L271.901 346.409C272.082 346.349 290.589 340.19 305.591 337.551C317.871 335.393 329.58 335.994 332.242 338.927L331.685 339.438C329.535 337.069 318.999 335.957 305.719 338.288C290.777 340.957 272.36 347.101 272.134 347.161Z" fill="#263238"/>
<path d="M271.976 353.162L271.736 352.448C271.924 352.38 290.739 346.056 305.531 343.507C318.6 341.251 329.903 342.529 332.272 345.123L331.708 345.635C329.828 343.559 319.465 341.875 305.659 344.251C290.927 346.808 272.164 353.095 271.976 353.162Z" fill="#263238"/>
<path d="M271.811 359.156L271.57 358.441C271.758 358.374 290.889 351.884 305.47 349.417C319.503 347.064 330.264 349.064 332.294 351.32L331.738 351.831C330.031 349.951 319.834 347.808 305.591 350.207C291.077 352.613 271.999 359.088 271.811 359.156Z" fill="#263238"/>
<path d="M271.646 365.149L271.405 364.435C271.601 364.367 291.047 357.72 305.403 355.351C319.759 352.982 330.512 355.464 332.317 357.441L331.761 357.953C330.099 356.125 319.337 353.817 305.531 356.088C291.228 358.449 271.841 365.082 271.646 365.149Z" fill="#263238"/>
<path d="M271.488 371.143L271.24 370.436C271.435 370.361 291.198 363.555 305.343 361.269C319.375 359.013 330.535 361.622 332.339 363.6L331.768 364.104C330.264 362.45 319.495 359.735 305.448 362.006C291.401 364.277 271.683 371.075 271.488 371.143Z" fill="#263238"/>
<path d="M271.322 377.136L271.074 376.429C271.277 376.354 291.378 369.39 305.282 367.187C319.57 364.931 330.73 367.939 332.354 369.759L331.798 370.27C330.595 368.947 320.007 365.623 305.388 367.932C291.536 370.12 271.525 377.068 271.322 377.136Z" fill="#263238"/>
<path d="M271.157 383.13L270.909 382.423C271.112 382.348 291.498 375.226 305.222 373.113C320.074 370.819 331.084 374.489 332.385 375.918L331.828 376.429C330.926 375.437 320.744 371.474 305.335 373.85C291.686 375.963 271.36 383.062 271.157 383.13Z" fill="#263238"/>
<path d="M270.991 389.13L270.743 388.416C270.954 388.341 291.656 381.069 305.155 379.031C320.819 376.662 331.437 381.009 332.407 382.039L331.851 382.55C331.046 381.656 320.571 377.429 305.267 379.738C291.837 381.798 271.202 389.055 270.991 389.13Z" fill="#263238"/>
<path d="M270.856 395.124L270.6 394.409C270.811 394.342 291.829 386.89 305.117 384.949C320.668 382.693 331.588 387.281 332.452 388.236L331.896 388.747C331.422 388.221 321.248 383.333 305.23 385.694C291.987 387.642 271.044 395.049 270.856 395.124Z" fill="#263238"/>
<path d="M270.668 401.117L270.412 400.41C270.63 400.328 291.957 392.755 305.004 390.868C320.511 388.612 331.535 393.417 332.422 394.394L331.866 394.906C331.257 394.297 320.857 389.348 305.11 391.612C292.145 393.484 270.856 401.042 270.668 401.117Z" fill="#263238"/>
<path d="M270.503 407.111L270.254 406.404C270.465 406.329 292.115 398.621 304.967 396.793C321.225 394.537 331.964 399.989 332.475 400.553L331.926 401.065C331.076 400.313 320.533 395.395 305.072 397.538C292.296 399.358 270.721 407.036 270.503 407.111Z" fill="#263238"/>
<path d="M270.345 413.104L270.089 412.397C270.307 412.322 292.265 404.456 304.906 402.712C321.12 400.508 331.978 406.133 332.505 406.712L331.948 407.224C331.896 407.224 321.586 401.208 305.012 403.464C292.446 405.186 270.563 413.029 270.345 413.104Z" fill="#263238"/>
<path d="M270.179 419.098L269.924 418.391C270.149 418.308 292.423 410.292 304.846 408.615C321.639 406.359 332.34 412.728 332.445 412.788L332.054 413.435C331.949 413.367 321.466 407.163 304.944 409.367C292.604 411.021 270.397 419 270.179 419.098Z" fill="#263238"/>
<path d="M400.05 464.819C400.05 464.819 397.718 464.24 394.094 463.481L394.252 462.729C397.891 463.481 400.215 464.067 400.268 464.075L400.05 464.819Z" fill="#263238"/>
<path d="M391.394 462.932C388.221 462.308 385.581 460.037 382.791 457.668C379.272 454.66 375.632 451.494 370.518 451.343C360.477 451.156 350.486 452.82 341.048 456.254L340.754 456.367L340.589 456.096C339.437 454.341 338.168 452.665 336.791 451.08L337.355 450.591C338.692 452.128 339.931 453.748 341.063 455.442C350.517 452.065 360.503 450.422 370.541 450.591C375.918 450.749 379.663 453.975 383.287 457.096C385.995 459.427 388.551 461.608 391.559 462.225L391.394 462.932Z" fill="#263238"/>
<path d="M334.829 448.9C332.966 446.954 330.955 445.156 328.813 443.523L329.264 442.929C331.436 444.582 333.473 446.405 335.355 448.381L334.829 448.9Z" fill="#263238"/>
<path d="M328.828 443.523C325.801 441.195 322.455 439.313 318.894 437.935C303.433 432.07 286.227 436.477 284.302 436.995L284.106 436.243C286.039 435.717 303.463 431.258 319.149 437.214C322.776 438.616 326.183 440.533 329.264 442.906L328.828 443.523Z" fill="#263238"/>
<path d="M240.505 447.704L240.34 446.952C240.761 446.854 282.617 437.507 300.5 437.928C307.472 438.028 314.382 439.254 320.962 441.56L320.706 442.267C314.194 439.986 307.354 438.779 300.455 438.695C282.67 438.281 240.926 447.614 240.505 447.704Z" fill="#263238"/>
<path d="M327.482 445.508C326.38 444.789 325.22 444.163 324.015 443.635L324.323 442.951C325.566 443.504 326.765 444.15 327.91 444.884L327.482 445.508Z" fill="#263238"/>
<path d="M325.005 457.033L211.373 462.471L211.409 463.222L325.041 457.784L325.005 457.033Z" fill="#263238"/>
<path d="M335.696 456.506L329.492 456.802L329.528 457.554L335.732 457.257L335.696 456.506Z" fill="#263238"/>
<path d="M246.846 467.653L240.223 467.821L240.242 468.573L246.865 468.405L246.846 467.653Z" fill="#263238"/>
<path d="M236.426 467.924L183.893 469.254L183.912 470.006L236.445 468.676L236.426 467.924Z" fill="#263238"/>
<path d="M319.278 471.897L313.443 472.072L313.465 472.824L319.301 472.649L319.278 471.897Z" fill="#263238"/>
<path d="M308.749 472.204L234.753 474.424L234.775 475.176L308.772 472.956L308.749 472.204Z" fill="#263238"/>
<path d="M288.68 465.504L273.183 466.034L273.209 466.786L288.706 466.255L288.68 465.504Z" fill="#263238"/>
<path d="M331.362 464.045L292.927 465.36L292.953 466.111L331.388 464.796L331.362 464.045Z" fill="#263238"/>
<path d="M222.188 474.004L216.828 474.151L216.849 474.903L222.209 474.756L222.188 474.004Z" fill="#263238"/>
<path d="M213.484 474.242L163.615 475.609L163.635 476.361L213.504 474.994L213.484 474.242Z" fill="#263238"/>
<path d="M252.898 310.178C252.898 310.178 263.953 295.642 270.946 289.588C277.94 283.535 289.874 273.992 294.724 273.992C299.575 273.992 300.778 277 301.086 278.075C301.395 279.15 305.448 294.431 305.448 295.191C305.448 295.95 301.214 297.161 300.936 296.251C300.658 295.341 298.815 282.316 298.063 279.895C297.311 277.473 297.454 276.135 291.701 278.534C285.949 280.933 268.991 299.124 265.502 303.35C262.012 307.576 258.689 311.983 258.689 311.983C258.689 311.983 254.568 310.178 252.898 310.178Z" fill="#263238"/>
<path d="M258.771 312.464L258.501 312.344C258.463 312.344 254.462 310.554 252.898 310.554H252.146L252.605 309.952C252.718 309.809 263.765 295.318 270.653 289.302C276.075 284.587 289.272 273.616 294.672 273.616C299.612 273.616 301.019 276.661 301.395 277.977C301.605 278.729 305.794 294.326 305.794 295.191C305.794 296.055 303.26 296.762 302.583 296.875C301.387 297.063 300.695 296.875 300.522 296.371C300.402 295.995 300.109 294.168 299.597 290.964C298.966 286.949 298.093 281.444 297.642 280.008L297.477 279.451C297.229 278.594 297.041 277.947 296.567 277.752C295.89 277.428 294.409 277.752 291.784 278.88C286.204 281.226 269.435 299.101 265.735 303.605C262.298 307.794 258.967 312.178 258.929 312.223L258.771 312.464ZM253.605 309.877C255.297 310.27 256.947 310.827 258.531 311.539C259.283 310.569 262.185 306.771 265.178 303.132C268.495 299.086 285.55 280.7 291.498 278.188C294.446 276.947 295.965 276.631 296.89 277.075C297.642 277.443 297.913 278.278 298.199 279.241C298.251 279.414 298.304 279.594 298.364 279.782C298.83 281.286 299.665 286.55 300.342 290.844C300.748 293.393 301.094 295.8 301.237 296.108C301.63 296.217 302.046 296.217 302.44 296.108C303.383 296.004 304.284 295.659 305.057 295.108C305.004 294.356 301.064 279.526 300.665 278.15C300.267 276.774 298.943 274.338 294.649 274.338C289.385 274.338 275.3 286.204 271.119 289.844C265.058 295.176 255.673 307.2 253.605 309.877Z" fill="#263238"/>
<path d="M440.011 325C439.657 324.489 439.184 323.895 438.853 323.812C438.319 323.676 434.769 329.707 433.897 331.196C434.375 330.593 434.92 330.045 435.521 329.565C435.521 330.016 433.702 338.95 432.04 343.191C430.378 347.432 430.821 349.402 432.491 349.252C434.16 349.102 436.424 341.529 437.755 337.288C438.94 333.283 439.696 329.164 440.011 325Z" fill="white"/>
<path d="M432.318 349.635C432.072 349.647 431.827 349.599 431.604 349.494C431.381 349.389 431.187 349.231 431.04 349.034C430.288 348.056 430.536 346.026 431.686 343.055C433.025 339.649 434.469 333.152 434.965 330.595L434.175 331.452L431.784 334.024L433.559 330.978C438.071 323.203 438.597 323.33 438.928 323.413C439.259 323.496 439.56 323.676 440.304 324.752L440.379 324.865V325C440.074 329.195 439.318 333.345 438.123 337.378L437.785 338.453C435.8 344.68 434.153 349.447 432.521 349.598L432.318 349.635ZM435.544 329.166L435.657 329.204L435.897 329.294V329.565C435.897 330.091 434.055 339.07 432.386 343.326C430.934 347.026 431.378 348.229 431.634 348.59C431.73 348.708 431.856 348.797 431.999 348.849C432.142 348.9 432.297 348.912 432.446 348.883C433.732 348.763 435.995 341.664 437.078 338.258L437.424 337.175C438.578 333.253 439.314 329.22 439.62 325.143C439.419 324.81 439.165 324.513 438.868 324.263C437.627 325.803 436.515 327.443 435.544 329.166Z" fill="#263238"/>
<path d="M439.913 321.841C439.304 319.112 435.401 322.593 433.701 325.022C432.002 327.451 424.467 335.618 420.226 339.709C415.984 343.8 400.087 357.426 398.418 358.637C396.748 359.848 394.786 361.968 393.575 362.119C392.364 362.269 389.183 362.119 387.672 361.209C386.16 360.299 385.416 358.637 378.129 354.704C370.842 350.771 339.363 341.679 337.092 341.544C334.821 341.409 333.001 343.665 329.82 345.026C326.639 346.387 321.345 346.688 319.074 344.717C316.803 342.747 314.073 337.754 312.562 334.122C311.05 330.489 308.621 329.61 306.501 328.369C304.38 327.128 278.947 315.976 274.247 314.419C269.547 312.863 264.862 311.847 262.742 311.697C261.371 311.618 259.996 311.719 258.651 311.998C258.651 311.998 258.35 312.449 257.147 311.547C255.944 310.644 251.996 308.967 250.785 311.389C249.574 313.81 247.777 319.42 248.815 321.541L249.875 323.661C249.875 323.661 248.815 337.288 249.274 341.98C249.732 346.672 253.364 352.734 256.387 356.366C259.41 359.998 271.533 366.811 280.451 368.932C289.37 371.052 294.837 369.842 297.259 368.18C299.68 366.518 307.102 358.186 308.922 356.215C310.742 354.245 310.584 353.034 316.487 354.854C322.39 356.674 324.519 360.908 325.579 364.089C326.639 367.27 330.572 379.986 333.753 384.077C337.735 389.452 343.062 393.682 349.199 396.342C356.922 399.673 362.066 402.245 369.338 401.343C376.61 400.441 380.543 397.102 382.814 393.161C385.085 389.221 386.574 381.355 387.326 378.926C387.949 377.315 389.062 375.94 390.507 374.993C390.507 374.993 393.515 373.632 394.447 371.511C395.38 369.39 402.471 362.878 402.471 362.878C402.471 362.878 413.977 353.794 418.368 348.793C422.76 343.792 435.544 329.106 435.544 329.565C435.544 330.023 433.724 338.949 432.062 343.191C430.4 347.432 430.844 349.402 432.513 349.252C434.183 349.101 436.446 341.529 437.777 337.288C439.108 333.046 440.515 324.564 439.913 321.841ZM311.201 346.808C310.931 347.724 310.523 348.594 309.99 349.387C309.08 350.748 303.019 360.442 299.236 363.465C295.454 366.488 291.062 369.067 286.513 368.616C281.963 368.165 270.314 363.773 261.697 356.96C253.079 350.147 251.853 341.205 252.763 332.58C253.673 323.955 256.703 318.036 261.245 317.134C265.787 316.232 280.797 320.007 291.077 325.459C301.357 330.911 310.155 337.573 310.757 339.844C311.359 342.115 311.201 346.808 311.201 346.808ZM383.731 377.865C382.821 385.739 381.009 390.289 378.279 393.921C375.549 397.553 372.376 399.222 363.893 398.433C355.411 397.643 349.056 394.492 343.146 390.258C337.235 386.025 335.272 380.415 333.001 375.113C330.73 369.812 326.797 359.216 329.068 352.553C331.339 345.89 338.002 347.56 338.002 347.56C338.002 347.56 343.604 348.771 344.018 348.921C344.432 349.071 377.941 358.915 379.452 361.186C380.964 363.457 384.641 369.992 383.731 377.865Z" fill="#263238"/>
<path d="M366.443 401.899C361.051 401.899 356.599 399.967 350.779 397.433L349.056 396.681C342.861 393.999 337.484 389.729 333.467 384.303C330.565 380.543 327.113 369.97 325.632 365.442C325.474 364.946 325.331 364.525 325.226 364.202C324.225 361.194 322.218 356.998 316.39 355.178C311.517 353.674 311.035 354.268 309.862 355.674C309.667 355.915 309.456 356.17 309.2 356.426L308.072 357.659C305.32 360.667 299.582 366.999 297.477 368.443C296.243 369.293 291.355 371.865 280.369 369.255C271.578 367.165 259.238 360.336 256.094 356.561C252.831 352.651 249.326 346.62 248.89 341.973C248.454 337.461 249.386 325.053 249.484 323.684L248.476 321.661C247.333 319.405 249.228 313.615 250.447 311.178C250.614 310.831 250.859 310.527 251.163 310.289C251.467 310.052 251.821 309.888 252.199 309.81C254.079 309.366 256.538 310.562 257.365 311.201C258.012 311.682 258.305 311.697 258.38 311.69L258.425 311.622L258.568 311.584C259.95 311.295 261.363 311.192 262.772 311.276C265.073 311.441 269.946 312.592 274.368 314.021C279.06 315.525 304.643 326.805 306.704 327.978L307.516 328.429C309.403 329.459 311.547 330.617 312.923 333.919C314.51 337.731 317.224 342.552 319.33 344.379C321.435 346.206 326.504 345.981 329.692 344.62C330.811 344.106 331.882 343.497 332.896 342.8C334.4 341.837 335.641 341.018 337.13 341.108C339.551 341.266 371.233 350.485 378.324 354.328C383.498 357.125 385.371 358.765 386.596 359.848C386.986 360.216 387.409 360.548 387.86 360.84C389.258 361.683 392.372 361.848 393.53 361.705C394.229 361.615 395.365 360.637 396.47 359.697C397.042 359.208 397.636 358.697 398.2 358.291C399.809 357.118 415.684 343.522 419.963 339.393C424.091 335.408 431.731 327.173 433.393 324.759C434.544 323.09 437.431 320.119 439.161 320.45C439.455 320.518 439.721 320.676 439.921 320.903C440.12 321.13 440.244 321.413 440.274 321.714C440.928 324.654 439.454 333.287 438.146 337.355L437.807 338.431C435.822 344.657 434.175 349.425 432.543 349.575C432.263 349.624 431.975 349.596 431.71 349.492C431.444 349.389 431.213 349.215 431.039 348.989C430.287 348.011 430.536 345.981 431.686 343.01C433.025 339.604 434.469 333.099 434.965 330.55C432.792 332.858 426.422 340.145 422.384 344.77L418.692 349.064C414.33 354.035 402.855 363.104 402.742 363.194C400.32 365.412 395.523 370.06 394.831 371.677C393.876 373.933 390.83 375.301 390.702 375.354C389.343 376.252 388.293 377.546 387.694 379.061C387.506 379.67 387.258 380.671 386.942 381.829C386.092 385.243 384.814 390.401 383.092 393.372C380.317 398.192 375.82 400.892 369.338 401.734C368.377 401.848 367.41 401.903 366.443 401.899ZM312.216 353.576C313.715 353.677 315.193 353.986 316.608 354.493C322.774 356.388 324.88 360.81 325.94 363.969C326.045 364.292 326.188 364.721 326.346 365.217C327.812 369.729 331.242 380.257 334.054 383.844C337.996 389.171 343.275 393.363 349.357 395.996L351.079 396.748C357.847 399.681 362.683 401.802 369.3 400.974C375.527 400.222 379.828 397.583 382.498 392.981C384.16 390.101 385.431 385.002 386.258 381.626C386.551 380.46 386.799 379.46 387.01 378.821C387.654 377.12 388.824 375.668 390.349 374.677C390.416 374.639 393.297 373.323 394.109 371.368C395.034 369.195 401.93 362.878 402.223 362.607C402.358 362.502 413.774 353.471 418.098 348.553L421.79 344.334C435.153 329.031 435.228 329.061 435.619 329.211L435.86 329.301V329.572C435.86 330.098 434.017 339.077 432.348 343.334C430.897 347.034 431.34 348.237 431.596 348.598C431.692 348.715 431.819 348.805 431.962 348.856C432.105 348.908 432.259 348.92 432.408 348.891C433.694 348.771 435.958 341.672 437.04 338.265L437.386 337.182C438.778 332.858 440.071 324.534 439.499 321.939C439.379 321.39 439.139 321.285 438.973 321.247C437.86 321.044 435.333 323.263 433.965 325.248C432.243 327.752 424.647 335.942 420.429 339.995C416.21 344.048 400.2 357.78 398.583 358.953C398.042 359.344 397.463 359.848 396.899 360.329C395.658 361.389 394.485 362.389 393.56 362.51C392.454 362.645 389.108 362.57 387.416 361.547C386.926 361.234 386.465 360.877 386.04 360.479C384.829 359.411 382.987 357.81 377.888 355.042C370.849 351.23 339.401 342.078 337.009 341.92C335.769 341.83 334.648 342.567 333.249 343.492C332.2 344.216 331.087 344.845 329.926 345.372C326.534 346.823 321.12 347.034 318.781 345.003C316.442 342.973 313.743 338.04 312.171 334.265C310.9 331.211 308.967 330.166 307.095 329.151L306.275 328.692C304.237 327.527 278.767 316.299 274.09 314.795C270.378 313.527 266.553 312.62 262.667 312.088C261.367 312.014 260.063 312.105 258.786 312.359C258.692 312.425 258.584 312.469 258.471 312.487C257.875 312.498 257.299 312.274 256.869 311.863C256.072 311.261 253.861 310.246 252.357 310.599C252.087 310.655 251.834 310.772 251.618 310.941C251.401 311.111 251.227 311.329 251.108 311.577C249.905 313.976 248.176 319.458 249.138 321.353L250.244 323.609V323.707C250.244 323.849 249.191 337.355 249.642 341.965C250.071 346.477 253.485 352.32 256.673 356.148C259.741 359.84 271.879 366.533 280.542 368.593C291.235 371.128 295.883 368.699 297.086 367.886C299.116 366.495 304.809 360.231 307.546 357.223C308.027 356.697 308.411 356.268 308.682 355.982C308.952 355.697 309.125 355.471 309.313 355.23C310.125 354.208 310.712 353.576 312.216 353.576ZM367.556 399.019C366.45 399.019 365.224 398.959 363.863 398.839C356.403 398.17 349.944 395.628 342.928 390.567C337.453 386.634 335.317 381.543 333.249 376.662C333.054 376.196 332.858 375.73 332.655 375.271C329.647 368.315 326.572 358.727 328.707 352.433C331.069 345.53 338.025 347.169 338.092 347.169C338.656 347.289 343.717 348.38 344.176 348.538L344.973 348.778C360.194 353.328 378.595 359.141 379.806 360.953C381.016 362.765 385.07 369.586 384.107 377.858C383.257 385.205 381.603 390.063 378.58 394.094C376.264 397.23 373.647 399.019 367.556 399.019ZM336.152 347.763C334.114 347.763 330.888 348.515 329.422 352.704C327.256 359.066 330.926 369.398 333.347 374.993C333.55 375.459 333.746 375.925 333.941 376.392C335.964 381.197 338.062 386.168 343.371 389.98C350.267 394.936 356.607 397.433 363.931 398.087C372.399 398.839 375.407 397.132 377.978 393.695C380.919 389.777 382.528 385.032 383.355 377.828C384.28 369.804 380.392 363.239 379.182 361.419C378.873 360.961 375.482 358.742 344.755 349.545L343.935 349.305C343.619 349.199 340.175 348.44 337.919 347.951C337.339 347.821 336.746 347.758 336.152 347.763ZM287.595 369.06C287.221 369.061 286.847 369.043 286.475 369.007C281.722 368.526 270.074 364.074 261.448 357.268C251.785 349.635 251.672 339.506 252.372 332.55C253.334 323.451 256.53 317.706 261.155 316.758C265.78 315.81 280.805 319.601 291.235 325.12C301.139 330.384 310.426 337.197 311.111 339.739C311.72 342.04 311.577 346.62 311.577 346.815V346.898C311.296 347.853 310.87 348.758 310.313 349.583C310.216 349.733 310.065 349.974 309.855 350.29C308.14 352.937 302.914 361.013 299.485 363.75C294.988 367.36 291.16 369.06 287.595 369.06ZM262.922 317.382C262.378 317.374 261.834 317.42 261.298 317.518C257.087 318.36 254.026 324.007 253.124 332.633C251.988 343.401 254.778 351.042 261.915 356.697C270.104 363.164 281.783 367.804 286.55 368.278C290.258 368.654 294.213 367.044 299.003 363.209C302.335 360.547 307.508 352.553 309.215 349.921L309.674 349.214C310.176 348.469 310.564 347.653 310.825 346.793C310.825 346.319 310.938 342.055 310.381 339.98C309.825 337.904 301.192 331.287 290.882 325.827C281.602 320.894 268.66 317.382 262.922 317.382Z" fill="#263238"/>
<path d="M322.466 349.673C321.806 349.677 321.147 349.606 320.503 349.463C315.104 348.267 313.021 342.431 311.645 338.566L311.449 338.017C310.163 334.445 308.877 333.505 308.87 333.505L309.283 332.888C309.343 332.926 310.787 333.904 312.156 337.761L312.351 338.31C313.675 342.018 315.675 347.62 320.669 348.733C325.872 349.884 331.197 345.372 331.242 345.327L331.738 345.898C331.535 346.056 327.256 349.673 322.466 349.673Z" fill="white"/>
<path d="M390.266 366.939C388.488 366.869 386.746 366.415 385.16 365.608C384.987 365.458 384.846 365.273 384.746 365.066C384.047 363.878 381.904 360.284 372.948 356.246C362.352 351.47 338.122 345.424 337.882 345.364L338.062 344.612C338.303 344.672 362.6 350.733 373.256 355.539C382.423 359.675 384.664 363.42 385.393 364.653C385.476 364.788 385.566 364.939 385.596 364.976C385.905 365.172 390.319 367.112 392.409 365.57L392.861 366.179C392.097 366.698 391.189 366.964 390.266 366.939Z" fill="white"/>
<path d="M307.629 332.121C307.629 332.121 304.621 329.647 292.115 324C283.905 320.384 275.399 317.486 266.69 315.337C265.802 315.104 265.103 314.923 264.607 314.78C261.924 314.118 259.11 314.225 256.485 315.089C254.192 315.735 251.402 313.291 251.289 313.186L251.785 312.622C251.785 312.622 254.387 314.878 256.297 314.359C259.055 313.459 262.011 313.355 264.825 314.058C265.321 314.201 266.02 314.382 266.893 314.607C275.651 316.765 284.206 319.679 292.461 323.316C305.087 329.023 308.027 331.445 308.148 331.55L307.629 332.121Z" fill="white"/>
<path d="M257.5 355.591C250.627 349.628 251.154 339.484 251.161 339.386L251.913 339.431C251.913 339.529 251.402 349.312 257.989 355.02L257.5 355.591Z" fill="white"/>
</svg>
