<svg width="40" height="40" viewBox="0 0 40 40" fill="none" xmlns="http://www.w3.org/2000/svg">
<circle cx="20" cy="20" r="20" fill="#F2F1ED"/>
<path d="M28.8125 11.1376C27.6663 9.9802 26.3013 9.06253 24.7969 8.43802C23.2925 7.81352 21.6789 7.49467 20.05 7.50007C13.225 7.50007 7.6625 13.0626 7.6625 19.8876C7.6625 22.0751 8.2375 24.2001 9.3125 26.0751L7.5625 32.5001L14.125 30.7751C15.9375 31.7626 17.975 32.2876 20.05 32.2876C26.875 32.2876 32.4375 26.7251 32.4375 19.9001C32.4375 16.5876 31.15 13.4751 28.8125 11.1376ZM20.05 30.1876C18.2 30.1876 16.3875 29.6876 14.8 28.7501L14.425 28.5251L10.525 29.5501L11.5625 25.7501L11.3125 25.3626C10.2844 23.7214 9.73866 21.8242 9.7375 19.8876C9.7375 14.2126 14.3625 9.58757 20.0375 9.58757C22.7875 9.58757 25.375 10.6626 27.3125 12.6126C28.272 13.5674 29.0324 14.7032 29.5495 15.9542C30.0667 17.2052 30.3302 18.5464 30.325 19.9001C30.35 25.5751 25.725 30.1876 20.05 30.1876ZM25.7 22.4876C25.3875 22.3376 23.8625 21.5876 23.5875 21.4751C23.3 21.3751 23.1 21.3251 22.8875 21.6251C22.675 21.9376 22.0875 22.6376 21.9125 22.8376C21.7375 23.0501 21.55 23.0751 21.2375 22.9126C20.925 22.7626 19.925 22.4251 18.75 21.3751C17.825 20.5501 17.2125 19.5376 17.025 19.2251C16.85 18.9126 17 18.7501 17.1625 18.5876C17.3 18.4501 17.475 18.2251 17.625 18.0501C17.775 17.8751 17.8375 17.7376 17.9375 17.5376C18.0375 17.3251 17.9875 17.1501 17.9125 17.0001C17.8375 16.8501 17.2125 15.3251 16.9625 14.7001C16.7125 14.1001 16.45 14.1751 16.2625 14.1626H15.6625C15.45 14.1626 15.125 14.2376 14.8375 14.5501C14.5625 14.8626 13.7625 15.6126 13.7625 17.1376C13.7625 18.6626 14.875 20.1376 15.025 20.3376C15.175 20.5501 17.2125 23.6751 20.3125 25.0126C21.05 25.3376 21.625 25.5251 22.075 25.6626C22.8125 25.9001 23.4875 25.8626 24.025 25.7876C24.625 25.7001 25.8625 25.0376 26.1125 24.3126C26.375 23.5876 26.375 22.9751 26.2875 22.8376C26.2 22.7001 26.0125 22.6376 25.7 22.4876Z" fill="#710014"/>
</svg>
